<?xml version="1.0" encoding="utf-8"?>
<!-- Generator: Adobe Illustrator 27.2.0, SVG Export Plug-In . SVG Version: 6.00 Build 0)  -->
<svg version="1.1" id="Layer_1" xmlns="http://www.w3.org/2000/svg" xmlns:xlink="http://www.w3.org/1999/xlink" x="0px" y="0px"
	 viewBox="0 0 1750 750" style="enable-background:new 0 0 1750 750;" xml:space="preserve">
<style type="text/css">
	.st0{fill:#A86B29;}
	.st1{fill:#231F20;}
	.st2{fill:#FFFFFF;}
	.st3{fill:#333333;}
	.st4{fill:#FF5C7F;}
	.st5{fill:#FFFFFF;}
</style>
<g>
	<g>
		<g>
			<g>
				<path class="st0" d="M632.85,115.19c28.19,4.7,54.03,28.19,75.18,44.64c44.64,39.94,75.18,91.62,68.13,152.7
					c-4.7,25.84-16.45,54.03-11.75,82.23c2.35,21.14,28.19,54.03,23.49,72.83c-7.05,28.19-49.34,7.05-63.43-2.35
					c-28.19-21.14-37.59-49.34-46.99-79.88c-18.79-54.03-18.79-124.51-61.08-164.45L632.85,115.19z"/>
				<path class="st1" d="M631.82,118.94c21.6,4,39.8,17.11,56.76,30.39c15.97,12.5,30.71,25.6,43.77,41.18
					c26.44,31.53,42.48,70.6,40.74,112.07c-0.95,22.65-10.29,44.36-12.99,66.87c-2.25,18.77,1.69,35.13,9.43,52.01
					c6.11,13.32,18.52,31.41,14.16,46.73c-4.3,15.12-24.75,8.95-34.96,5.17c-48.64-18.01-64.04-70.6-75.43-116.47
					c-11.85-47.73-16.82-102.69-54.15-138.72c-3.61-3.48-9.11,2.01-5.5,5.5c27.73,26.77,36.64,65.65,44.64,101.97
					c7.88,35.81,15.71,73.37,32.8,106.14c14.01,26.85,39.69,47.69,69.85,53.1c11.14,2,22.91-0.09,28.68-10.76
					c6.72-12.43-0.13-27.56-5.26-39.2c-5.51-12.49-12.7-24.57-15.7-38.01c-4.39-19.71,0.95-40.41,5.74-59.5
					c4.17-16.62,7.16-32.21,6.48-49.43c-0.64-16.01-4.19-31.84-9.7-46.85c-10.92-29.73-30.6-55.53-53.2-77.37
					c-11.82-11.43-25.4-21.55-38.76-31.11c-13.63-9.76-28.7-18.11-45.34-21.19C628.98,110.53,626.89,118.03,631.82,118.94
					L631.82,118.94z"/>
			</g>
			<g>
				<path class="st0" d="M360.33,108.14c-28.19,4.7-54.03,14.1-79.88,30.54c-25.84,18.79-49.34,39.94-58.73,70.48
					c-7.05,28.19-2.35,61.08-16.45,86.92c-14.1,30.54-44.64,44.64-70.48,63.43c-21.14,16.44-30.54,30.54-4.7,44.64
					c49.34,32.89,126.86,21.14,171.5-14.1c61.08-44.64,84.57-119.81,86.92-192.64L360.33,108.14z"/>
				<path class="st1" d="M359.3,104.39c-42.38,7.3-80.7,26.12-111.4,56.35c-13.54,13.33-24.09,29.27-29.92,47.39
					c-6.46,20.07-4.3,42.71-8.25,63.32c-3.98,20.75-15.27,38.47-30.99,52.29c-14.39,12.65-31.71,21.21-46.68,33.03
					c-10.16,8.02-26.19,20.77-20.08,35.67c2.88,7.01,9.87,11.48,16.16,15.07c7.86,4.49,15.39,8.74,23.91,11.92
					c59.49,22.24,128.23-1.03,172.23-43.5c47.64-45.98,65.86-114.19,68.14-178.52c0.18-5.02-7.6-5-7.78,0
					c-2.76,78.23-31.27,159.96-102.46,200.96c-32.9,18.95-74.12,25.9-111.32,18.32c-8.88-1.81-17.53-4.72-25.74-8.52
					c-8.54-3.96-19.88-9.41-25.25-17.31c-9.87-14.5,25.12-33.8,33.96-39.64c20.93-13.83,41.94-28.17,53.79-51.03
					c13.91-26.83,11.23-56.26,16.77-85.13c5.35-27.88,27.64-49.47,49.03-66.28c25.34-19.9,56.42-31.47,87.96-36.9
					C366.3,111.04,364.2,103.55,359.3,104.39L359.3,104.39z"/>
			</g>
			<g>
				<path class="st0" d="M266.36,479.33c-16.45-28.19,7.05-86.92,11.75-115.12c11.75-44.64,18.79-89.27,25.84-133.91
					c4.7-35.24,4.7-84.57,35.24-110.42c28.19-25.84,77.53-18.79,112.77-16.45c44.64,2.35,86.92,2.35,131.56,2.35
					c32.89,0,58.73,2.35,72.83,35.24c18.79,42.29,14.1,93.97,14.1,138.61c-2.35,70.48,16.45,148.01,2.35,218.49L266.36,479.33z"/>
				<path class="st1" d="M269.72,477.37c-7.94-14.41-5.52-32.76-2.86-48.26c2.89-16.85,7.78-33.28,11.95-49.84
					c11.29-44.9,19.75-90.32,27.01-136.03c5.65-35.57,3.97-75.98,24.23-107.27c22.34-34.49,67.2-32.65,103.28-30.04
					c46.97,3.41,94.01,3.72,141.09,3.74c17.49,0.01,35.72-0.87,52.35,5.47c18.51,7.05,26.64,26.21,32.02,43.8
					c12.87,42.08,7.9,88.39,7.57,131.73c-0.36,47.71,7.21,95.09,7.82,142.78c0.27,21.33-1.07,42.68-5.13,63.63
					c-0.95,4.9,6.55,6.99,7.5,2.07c9-46.43,4.76-93.76,1.02-140.51c-1.88-23.54-3.59-47.11-3.41-70.74
					c0.16-21.74,0.95-43.48,0.61-65.22c-0.33-21.31-2.2-42.7-7.77-63.33c-4.37-16.19-11.35-33.88-25.11-44.36
					c-12.02-9.16-26.77-11.78-41.52-12.71c-22.5-1.42-45.27-0.35-67.8-0.52c-24.85-0.19-49.7-0.74-74.53-1.91
					c-18.7-0.88-37.3-3.08-56.05-2.96c-17.47,0.11-35.1,2.53-50.94,10.19c-15.17,7.33-26.65,20.99-33.85,35.94
					c-7.52,15.62-10.68,33.11-12.88,50.18c-2.58,20-4.69,39.94-7.89,59.87c-7.1,44.13-15.7,88.04-26.95,131.3
					c-4.47,17.18-9.31,34.37-11.54,52.03c-1.9,15.01-2.44,31.23,5.08,44.89C265.42,485.69,272.14,481.77,269.72,477.37
					L269.72,477.37z"/>
			</g>
			<g>
				<path class="st2" d="M289.85,432.35c-63.43,63.43-25.84,131.56,44.64,173.85c79.88,46.99,190.29,56.38,279.57,23.49
					c91.62-35.24,110.42-126.86,51.68-204.39c-27.02-36.41-65.88-60.67-105.15-81.93c-20.34-11.01-41.07-21.28-61.49-32.13
					c-52.63-27.96-79.06,17.65-115.04,47.85C354.05,384.28,317.54,404.68,289.85,432.35z"/>
				<path class="st1" d="M287.1,429.6c-25.48,25.93-40.35,59.55-29.82,95.76c10.3,35.45,40.74,62.38,70.84,81.49
					c68.6,43.56,157.81,54.7,236.71,40.32c36.61-6.67,73.35-19.08,101.1-44.75c22.46-20.77,35.47-49.56,37.18-79.98
					c1.89-33.51-11.07-66.38-29.93-93.5c-24.12-34.71-58.59-59.38-94.83-80.16c-14.82-8.5-30-16.37-45.18-24.2
					c-15.16-7.83-30.21-17.29-46.39-22.83c-22.64-7.75-43.89,0.43-61.88,14.45c-9.56,7.45-18.06,16.22-26.73,24.65
					c-10.95,10.65-22.49,20.38-34.74,29.52C337.61,389.64,310.15,406.86,287.1,429.6c-3.57,3.53,1.93,9.02,5.5,5.5
					c30.94-30.53,69.99-50.9,102-80.13c23.45-21.41,47.91-54.55,83.85-47.41c10.57,2.1,19.92,7.74,29.35,12.66
					c11.59,6.05,23.24,11.98,34.83,18.02c19.87,10.37,39.54,21.16,58.31,33.44c35.06,22.94,65.55,53.02,82.85,91.67
					c13.51,30.17,16.07,65.44,3.09,96.21c-13.75,32.57-43.63,55.39-76.19,67.23c-79.18,28.79-171.99,24.05-248.55-10.57
					c-36.08-16.32-71.68-41.25-90.76-76.86c-8.43-15.73-11.92-33.8-8.96-51.45c3.45-20.57,15.85-38.23,30.17-52.8
					C296.12,431.52,290.62,426.02,287.1,429.6z"/>
			</g>
			<g>
				<path class="st3" d="M527.04,369.65c27.29,31.83-24.74,58.92-50.17,62.44C363.53,447.76,448.97,278.63,527.04,369.65z"/>
				<path class="st1" d="M524.29,372.4c23.5,28.74-24.29,51.72-47.14,55.74c-17.08,3.01-42.44,1.79-49.47-17.49
					c-5.46-14.98,1.97-32.52,11.44-44.15c11.32-13.91,28.78-22.56,46.86-19.26C501.54,350.07,514.21,360.82,524.29,372.4
					c3.3,3.79,8.78-1.74,5.5-5.5c-14.41-16.55-34.18-30.19-57.09-27.9c-17.67,1.77-32.71,12.78-42.83,26.9
					c-9.09,12.68-14.43,29.77-10.21,45.19c4.78,17.46,22.04,24.67,38.66,25.79c21.44,1.44,43.2-5.85,60.56-18.21
					c8.32-5.92,15.58-13.63,18.72-23.52c3.27-10.31-1.37-20.37-7.81-28.26C526.61,363.01,521.15,368.55,524.29,372.4z"/>
			</g>
			<path class="st1" d="M565.53,251.45c0.02,5.03,0.77,9.13,2.88,13.71c1.68,3.64,7.25,1.69,7.25-1.96c0-4.7,0-9.4,0-14.1
				c0-4.39-6.5-5.3-7.64-1.03c-2,7.47,1.69,11,5.09,17.09c1.36,2.43,5.41,2.63,6.72,0c2.73-5.5,2.31-8.95,0.39-14.74
				c-1.34-4.03-7.8-3.52-7.64,1.03c0.21,5.86,2.54,8.81,5.23,13.71c1.44,2.62,5.23,2.43,6.72,0c5.49-9,1.97-16.11-6.09-21.77
				c-2.02-1.41-5.19,0-5.71,2.32c-2.73,12.09,0.82,27.7,15.5,28.42c1.64,0.08,3.4-1.24,3.75-2.86c2.7-12.62-4.36-23-16.81-25.93
				c-1.8-0.42-3.37,0.29-4.39,1.79c-7.98,11.63-2.85,30.88,12.75,31.69c1.24,0.06,2.83-0.76,3.36-1.93
				c4.79-10.55,3.59-21.66-6.09-28.81c-1.3-0.96-3.68-0.61-4.71,0.61c-4.69,5.58-4.95,11.7,0,17.25c3.35,3.75,8.83-1.77,5.5-5.5
				c-1.82-2.04-2.18-3.65,0-6.25c-1.57,0.2-3.14,0.4-4.71,0.61c6,4.43,6.18,11.83,3.3,18.17c1.12-0.64,2.24-1.28,3.36-1.93
				c-9.89-0.51-10.38-13.67-6.04-19.99c-1.46,0.6-2.93,1.19-4.39,1.79c8.16,1.92,13.22,7.8,11.38,16.36c1.25-0.95,2.5-1.9,3.75-2.85
				c-9.02-0.44-9.51-11.85-8-18.57c-1.9,0.77-3.81,1.55-5.71,2.32c4.62,3.24,6.44,5.98,3.3,11.12c2.24,0,4.48,0,6.72,0
				c-1.93-3.52-4.02-5.54-4.17-9.78c-2.55,0.34-5.09,0.69-7.64,1.03c1.18,3.55,2.07,5.36,0.39,8.75c2.24,0,4.48,0,6.72,0
				c-2.15-3.85-5.58-6.33-4.31-11.1c-2.55-0.34-5.09-0.69-7.64-1.03c0,4.7,0,9.4,0,14.1c2.41-0.65,4.83-1.31,7.25-1.96
				c-1.53-3.3-1.81-6.2-1.82-9.78C573.29,246.44,565.51,246.43,565.53,251.45L565.53,251.45z"/>
			<path class="st1" d="M391.09,242.47c-6.13-1.28-11.48,0.61-14.89,5.97c-3.74,5.87-2.61,13.59,0.1,19.54
				c2.36,5.18,7.22,9.01,13.06,7.69c6.27-1.41,9.61-8.96,11.49-14.32c1.63-4.64,3.55-10.21,1.59-15.08
				c-1.51-3.76-4.98-5.86-9.02-5.1c-10.1,1.91-12.67,15.48-11.96,23.84c0.18,2.11,1.63,3.89,3.89,3.89c1.57,0,3.13,0,4.7,0
				c1.28,0,2.78-0.72,3.36-1.93c2.08-4.35,3.8-9.03,2.45-13.86c-1.24-4.44-5.43-6.85-9.47-8.3c-1.66-0.59-3.52,0.39-4.39,1.79
				c-4.82,7.76-3.19,14.81,2.96,21.16c1.38,1.42,4.15,1.61,5.5,0c3.47-4.14,3.48-9.33,3.49-14.5c0.01-5.02-7.77-5.01-7.78,0
				c0,2.58,0.58,6.86-1.21,9c1.83,0,3.67,0,5.5,0c-3.76-3.88-4.71-6.94-1.74-11.73c-1.46,0.6-2.93,1.19-4.39,1.79
				c5.56,1.99,4.61,6.06,2.37,10.73c1.12-0.64,2.24-1.28,3.36-1.93c-1.57,0-3.13,0-4.7,0c1.3,1.3,2.59,2.59,3.89,3.89
				c-0.42-4.98-0.18-12.26,4.38-15.56c0.45-0.33,1.45-0.71,1.21-0.68c0.42-0.05,0.29,0.02,0.21-0.06c-0.18-0.17,0.27,0.42,0.35,1.05
				c0.15,1.3-0.02,2.61-0.27,3.89c-0.6,3.04-5.11,18.32-10.1,13.55c-4.65-4.44-5.47-19.2,3.99-17.23
				C393.92,250.98,396,243.49,391.09,242.47L391.09,242.47z"/>
			<g>
				<path class="st4" d="M529.48,547.46c-5.82,28.49-2.84,70.71-44.32,72.59c-33.16,1.5-43.22-48.18-42.25-74.6
					c23.65-1.63,38.99-27.12,37.24-48.97c2.32,32.75,19.97,45.83,49.33,53.32V547.46z"/>
				<path class="st1" d="M525.73,546.43c-5.21,26.37-3.37,66.09-38.47,69.61c-33.71,3.38-41.17-46.32-40.46-70.58
					c-1.3,1.3-2.59,2.59-3.89,3.89c25.92-2.57,42.55-27.92,41.13-52.86c-2.59,0-5.18,0-7.78,0c1.18,14.28,5.12,27.66,15.08,38.3
					c9.63,10.27,23.84,15.3,37.1,18.77c4.86,1.27,6.91-6.23,2.07-7.5c-11.77-3.08-23.41-7.24-32.5-15.62
					c-9.47-8.73-12.94-21.54-13.97-33.96c-0.41-4.94-8.06-5.04-7.78,0c1.16,20.29-11.57,42.92-33.35,45.08
					c-2.16,0.21-3.82,1.61-3.89,3.89c-0.83,28.39,8.26,77.28,44.44,78.52c17.7,0.6,32.51-9.44,39.45-25.36
					c6.88-15.76,7.03-33.47,10.32-50.12C534.2,543.6,526.7,541.51,525.73,546.43L525.73,546.43z"/>
			</g>
			<path class="st1" d="M387.52,509.49c9.41,16.66,20.43,33.84,39.48,40.16c13.79,4.58,29.14,0.34,39.15-9.9
				c11.33-11.58,15.37-29.25,17.91-44.66c3.67-22.22,3.89-44.98,3.92-67.44c-2.59,0-5.18,0-7.78,0
				c-0.01,21.32-0.32,42.73,2.33,63.93c2.09,16.73,6.32,33.73,17.29,46.95c9.46,11.41,24.92,16.74,39.27,13.22
				c17.15-4.2,27.78-20.98,34.09-36.15c1.92-4.63-5.6-6.63-7.5-2.07c-5.94,14.3-15.77,28.37-31.9,31.42
				c-14.51,2.75-27.33-8.33-33.92-20.03c-7.51-13.33-9.47-29.77-10.72-44.74c-1.46-17.46-1.16-35.04-1.15-52.54
				c0-5.02-7.77-5.02-7.78,0c-0.02,19.34-0.38,38.72-2.6,57.95c-1.73,14.97-4.82,30.78-13.03,43.66
				c-7.33,11.51-20.52,16.46-33.7,13.39c-17.85-4.15-28.32-22.38-36.63-37.1C391.77,501.2,385.05,505.11,387.52,509.49
				L387.52,509.49z"/>
		</g>
		<rect x="391.97" y="248.34" class="st1" width="6.4" height="5.56"/>
	</g>
	<g>
		<path class="st5" d="M888.88,337.84c-1.92-0.99-3.44-3.11-4.56-6.34c-1.12-3.24-2.05-8.99-2.78-17.25c-0.73-8.26-1.52-20.49-2.38-36.68
			c-1.52-28.88-2.28-51.22-2.28-67.02c0-20.95,1.49-32.35,4.46-34.2c1.45-0.92,5.55-1.83,12.29-2.73s14.41-1.64,23-2.23
			c10.51-0.73,18.9-1.09,25.18-1.09c5.95,0,9.78,0.3,11.5,0.89c3.7,1.78,5.62,3.55,5.75,5.3c0.13,1.75,0.2,2.79,0.2,3.12
			c0,2.91-1.55,5.25-4.66,7.04c-1.52,0.79-3.44,1.32-5.75,1.59c-3.5,0.4-10.15,0.93-19.93,1.59l-23.99,1.59h-0.69
			c-2.38,0-4.11,0.31-5.21,0.94c-1.09,0.63-1.69,1.87-1.78,3.72c-0.1,1.85-0.15,3.34-0.15,4.46c0,2.84,0.13,6.61,0.4,11.3
			l0.59,14.57c0.06,4.1,0.28,7.04,0.64,8.82c0.36,1.78,1.29,2.84,2.78,3.17c1.49,0.33,3.62,0.5,6.39,0.5h6.44
			c6.54,0.13,11.58,0.46,15.12,0.99c3.54,0.53,5.95,1.45,7.24,2.78c1.29,1.32,1.93,3.21,1.93,5.65c0,2.38-0.54,4.16-1.64,5.35
			c-1.09,1.19-3.32,2.03-6.69,2.53c-3.37,0.5-8.39,0.84-15.07,1.04l-15.66,0.59c0.13,13.35,0.59,27.31,1.39,41.89
			c0.79,14.57,1.19,23.78,1.19,27.61c0,4.16-0.46,6.84-1.39,8.03c-0.66,0.86-1.62,1.59-2.88,2.18c-1.72,0.92-3.37,1.39-4.96,1.39
			C891.55,338.93,890.2,338.57,888.88,337.84z"/>
		<path class="st5" d="M978.7,336.06l-2.08-0.69c-2.05-0.53-3.67-1.69-4.86-3.47c-1.19-1.78-2.08-5.14-2.68-10.06
			c-0.59-4.92-0.99-12.34-1.19-22.26c-0.27-13.22-0.4-28.59-0.4-46.1c0-9.91,0.02-17.66,0.05-23.25c0.03-5.58,0.18-9.67,0.45-12.24
			c0.26-2.58,0.69-4.33,1.29-5.25c0.59-0.92,1.45-1.72,2.58-2.38l0.5-0.3c1.78-1.19,3.47-1.78,5.06-1.78c1.39,0,2.68,0.46,3.87,1.39
			c2.64,1.98,4.36,5.52,5.16,10.61c0.33,2.51,0.6,4.21,0.79,5.11s0.46,1.34,0.79,1.34c0.46,0,1.22-0.56,2.28-1.69
			c9.45-8.66,19.5-12.99,30.14-12.99c11.7,0,22.31,5.09,31.82,15.27c4.56,5.35,6.84,9.98,6.84,13.88v0.5
			c-0.2,4.1-1.31,6.3-3.32,6.59c-2.02,0.3-3.22,0.45-3.62,0.45c-3.37,0-7.44-2.15-12.19-6.44c-6.61-6.48-12.99-9.72-19.13-9.72
			c-6.54,0-13.55,3.77-21.02,11.3c-3.64,3.44-6.25,6.64-7.83,9.62c-1.59,2.97-2.48,6.61-2.68,10.91c-0.2,4.3-0.3,8.36-0.3,12.19
			c0,4.89,0.1,10.74,0.3,17.55c0.2,7.47,0.3,13.72,0.3,18.74c0,2.97-0.03,5.52-0.1,7.63c-0.2,5.55-0.86,9.24-1.98,11.05
			c-1.12,1.82-3.01,3.06-5.65,3.72c-1.12,0.53-2.05,0.79-2.78,0.79H978.7z"/>
		<path class="st5" d="M1077.54,193c-3.97-2.44-6.08-4.82-6.35-7.14c-0.26-2.31-0.4-3.8-0.4-4.46c0-3.24,0.99-6.21,2.97-8.92
			c2.38-3.24,5.88-4.92,10.51-5.06c4.69,0.2,7.91,1.65,9.67,4.36c1.75,2.71,2.63,5.35,2.63,7.93c0,5.55-2.71,9.91-8.13,13.09
			c-1.26,0.59-3.34,0.89-6.25,0.89C1080.15,193.69,1078.6,193.46,1077.54,193z M1082.9,334.77c-2.05-0.4-3.57-1.37-4.56-2.92
			c-0.99-1.55-1.69-4.59-2.08-9.12c-0.4-4.53-0.73-11.48-0.99-20.87c-0.59-19.1-0.89-34.86-0.89-47.29
			c0-21.22,1.09-34.37,3.27-39.46c1.72-4.03,4.1-6.05,7.14-6.05c3.77,0,6.41,1.49,7.93,4.46c1.25,2.51,2.13,7.54,2.63,15.07
			s0.84,19,1.04,34.4c0.2,9.19,0.3,17.38,0.3,24.59c0,9.65-0.17,17.55-0.5,23.69c-0.6,10.84-1.77,17.58-3.52,20.23
			c-1.75,2.64-3.78,3.97-6.1,3.97C1085.44,335.46,1084.22,335.23,1082.9,334.77z"/>
		<path class="st5" d="M1158.54,335.17c-10.38-2.78-18.77-8.71-25.18-17.8c-6.41-9.09-10-17.3-10.76-24.64c-0.76-7.34-1.14-12.19-1.14-14.57
			c0-9.78,2.05-19.56,6.15-29.35c5.16-11.5,12.51-20.62,22.06-27.36c9.55-6.74,17.2-10.33,22.95-10.76
			c5.75-0.43,9.12-0.64,10.11-0.64c9.19,0,17.35,2.97,24.49,8.92c5.75,5.22,8.63,10.81,8.63,16.75c0,6.68-3.07,13.25-9.22,19.73
			c-5.75,5.95-13.52,11.02-23.3,15.22c-9.78,4.2-20.95,6.83-33.51,7.88l-5.65,0.5l0.1,4.76c0.2,5.42,1.69,10.72,4.46,15.91
			c2.78,5.19,6.21,9.04,10.31,11.55c2.44,1.46,5.02,2.18,7.73,2.18c9.72,0,20.98-9.45,33.81-28.35c3.77-5.62,6.59-8.91,8.48-9.86
			c1.88-0.96,3.35-1.44,4.41-1.44c1.65,0,3.37,0.66,5.16,1.98c2.58,1.72,3.87,3.93,3.87,6.64c0,2.71-1.45,6.84-4.36,12.39
			c-7.87,15.47-16.29,26.22-25.28,32.27c-8.99,6.05-17.45,9.07-25.38,9.07C1164.49,336.16,1161.52,335.83,1158.54,335.17z
			 M1154.97,257.54c8.86-1.85,16.67-4.41,23.45-7.68c6.77-3.27,11.14-6.1,13.09-8.48c1.95-2.38,2.92-4.16,2.92-5.35
			c0-1.39-0.93-2.61-2.78-3.67c-2.84-1.19-5.82-1.78-8.92-1.78c-4.5,0-9.25,1.29-14.28,3.87c-8.46,4.3-15.1,10.97-19.93,20.03
			c-0.73,1.39-1.09,2.41-1.09,3.07c0,0.66,0.53,0.99,1.59,0.99C1150.21,258.53,1152.2,258.2,1154.97,257.54z"/>
		<path class="st5" d="M1321.13,332.79c-0.99-0.99-1.73-2.33-2.23-4.02c-0.5-1.69-0.86-4.61-1.09-8.77c-0.23-4.16-0.41-10.38-0.55-18.64
			c-0.2-14.47-0.68-25.21-1.44-32.22c-0.76-7-2.13-13.42-4.11-19.23c-2.78-8.26-5.9-12.8-9.37-13.63c-3.47-0.83-5.87-1.24-7.19-1.24
			c-4.43,0-8.99,1.85-13.68,5.55c-6.02,4.76-11.1,12.29-15.27,22.6l-1.78,4.46l-0.3,31.92c-0.13,15.33-0.4,24.55-0.79,27.66
			c-0.26,2.12-0.66,3.6-1.19,4.46c-0.86,1.32-1.78,2.21-2.78,2.68c-1.39,1.19-2.61,1.78-3.67,1.78h-1.78c-1.78,0-3.47-0.5-5.06-1.49
			l-0.3-0.3c-1.06-0.59-1.87-1.29-2.43-2.08c-0.56-0.79-0.99-2.21-1.29-4.26s-0.48-5.29-0.55-9.72c-0.26-10.24-0.4-16.79-0.4-19.63
			c-0.27-18.7-0.66-34.73-1.19-48.08c-0.46-10.77-0.69-18.97-0.69-24.59c0-6.87,0.53-11.25,1.59-13.14
			c1.06-1.88,2.78-3.09,5.16-3.62c1.06-0.33,2.05-0.5,2.97-0.5c5.29,0,8.59,5.35,9.91,16.06l0.1,1.39c0.2,3.17,0.45,4.83,0.74,4.96
			c0.3,0.13,0.48,0.2,0.55,0.2c0.59,0,2.05-1.16,4.36-3.47c10.57-9.78,20.79-14.67,30.63-14.67c2.31,0,4.59,0.27,6.84,0.79
			c11.9,2.91,20.79,12.69,26.67,29.35c1.78,5.42,2.88,8.92,3.27,10.51c2.11,9.06,3.37,19.17,3.77,30.34
			c0.26,7.8,0.4,14.54,0.4,20.23c0,14.87-0.46,23.46-1.39,25.78c-2.05,3.44-3.98,5.29-5.8,5.55c-1.82,0.26-2.96,0.4-3.42,0.4
			C1325.73,336.16,1323.32,335.03,1321.13,332.79z"/>
		<path class="st5" d="M1443.18,338.14c-2.05-1.06-3.44-2.99-4.16-5.8c-0.73-2.81-1.14-7.92-1.24-15.32c-0.1-7.4-0.25-11.6-0.45-12.59
			c-0.2-0.73-0.4-1.09-0.59-1.09c-0.66,0-0.99,0.26-0.99,0.79c0,0.53-0.83,2.02-2.48,4.46c-3.7,5.42-7.73,10.41-12.1,14.97
			c-8.79,8.39-15.38,12.67-19.78,12.84c-4.4,0.16-6.83,0.25-7.29,0.25c-7.8,0-14.64-2.88-20.52-8.62
			c-6.21-6.08-10.15-12.97-11.8-20.67c-1.65-7.7-2.48-14.06-2.48-19.09c0-7,0.96-14.54,2.88-22.6c3.3-12.62,8.56-23.17,15.76-31.63
			c7.2-8.46,14.09-13.75,20.67-15.86c6.58-2.11,11.88-3.17,15.91-3.17c5.22,0,10.48,1.09,15.76,3.27l0.99,0.4
			c0.79,0.46,1.42,0.69,1.88,0.69l0.4-0.1c0.46-0.13,0.73-1.09,0.79-2.88c0-1.78-0.1-4.79-0.3-9.02c-0.07-1.19-0.1-2.44-0.1-3.77
			c-0.2-4.3-0.3-8.13-0.3-11.5c0-3.97,0.13-7.34,0.4-10.11c0.46-5.16,1.47-8.72,3.02-10.71c1.55-1.98,3.85-2.97,6.89-2.97
			c3.5,0,6,1.37,7.48,4.11c1.49,2.74,2.46,7.75,2.92,15.02c1.45,20.49,2.49,40.83,3.12,61.02c0.63,20.19,0.94,37.39,0.94,51.6
			c0,20.49-0.59,32.09-1.78,34.8c-1.52,2.31-3.11,3.68-4.76,4.11c-1.65,0.43-2.88,0.64-3.67,0.64
			C1446.51,339.63,1444.83,339.13,1443.18,338.14z M1398.86,312.96c5.95-2.71,11.6-8.89,16.95-18.54
			c5.35-9.65,10.87-23.5,16.56-41.54c0.66-1.98,0.99-3.67,0.99-5.06c0-0.92-0.13-1.72-0.4-2.38c-0.73-1.72-2.78-3.5-6.15-5.35
			c-3.97-2.25-7.87-3.37-11.7-3.37c-3.11,0-6.18,0.73-9.22,2.18c-6.81,3.31-12.44,9.25-16.9,17.85c-4.46,8.59-6.83,18.8-7.09,30.63
			c0.06,10.25,1.35,17.27,3.87,21.07c2.51,3.8,5.25,5.7,8.23,5.7C1395.46,314.15,1397.08,313.75,1398.86,312.96z"/>
		<path class="st5" d="M1499.49,334.27c-3.5-1.52-5.59-5.02-6.25-10.51c-0.4-3.83-0.74-13.15-1.04-27.96c-0.3-14.8-0.48-29.01-0.55-42.63
			c-0.07-13.61-0.1-24.42-0.1-32.42c0-27.82,0.3-43.16,0.89-46c1.78-4.82,4.66-7.27,8.63-7.34c3.9,0,6.84,2.41,8.82,7.24
			c0.66,2.91,1.29,12,1.88,27.26c0.6,15.27,1.04,31.15,1.34,47.64c0.3,16.49,0.45,30.49,0.45,41.99c0,23.2-0.36,35.89-1.09,38.07
			c-2.05,3.63-5.16,5.45-9.32,5.45C1501.9,335.07,1500.68,334.8,1499.49,334.27z"/>
		<path class="st5" d="M1582.97,394.15c-1.52,0-2.71-0.07-3.57-0.2c-7.4-1.65-14.21-4.64-20.42-8.97c-6.21-4.33-9.32-8.28-9.32-11.85
			c0-4.36,1.09-6.94,3.27-7.73s3.87-1.19,5.06-1.19c2.64,0,5.65,0.92,9.02,2.78c6.35,3.44,12.06,5.16,17.15,5.16
			c18.31,0,28.98-21.98,32.02-65.93c0.26-3.7,0.4-6.51,0.4-8.43c0-2.11-0.17-3.17-0.5-3.17c-0.59,0-1.82,1.98-3.67,5.95
			c-6.74,13.15-12.87,20.67-18.39,22.55c-5.52,1.88-9.53,2.83-12.05,2.83c-5.75,0-11.3-2.31-16.66-6.94
			c-7.67-6.67-13.72-17.88-18.14-33.61c-4.3-16.19-6.44-30.3-6.44-42.33c0-12.49,2.15-20.19,6.44-23.1c1.72-0.79,3.3-1.19,4.76-1.19
			c1.98,0,3.8,0.73,5.45,2.18c2.44,2.12,3.67,4.99,3.67,8.62c0,0.79-0.05,1.59-0.15,2.38c-0.1,0.79-0.15,1.82-0.15,3.07
			c0,5.29,0.59,12.19,1.78,20.72c2.18,16.26,5.91,29.35,11.2,39.26c3.24,6.08,5.98,9.12,8.23,9.12c2.18,0,4.64-1.72,7.39-5.16
			c2.74-3.44,5.27-7.96,7.58-13.58c0.66-1.72,1.29-3.17,1.88-4.36l1.39-4.06c0.73-1.98,1.19-3.07,1.39-3.27
			c0.33-0.53,0.5-1.29,0.5-2.28s0.2-1.55,0.59-1.69c0.46-0.46,0.76-1.19,0.89-2.18c0.53-2.25,1.16-4.56,1.88-6.94
			c2.11-7.27,4.43-16.95,6.94-29.05c1.72-8.72,3.5-14.21,5.35-16.46c1.85-2.25,3.77-3.37,5.75-3.37c1.32,0,2.74,0.36,4.26,1.09
			c7.73,3.77,11.6,25.35,11.6,64.74l-0.1,12.49c-0.46,29.88-4.11,53.04-10.96,69.5c-6.84,16.46-17.47,27.63-31.87,33.51
			c-0.79,0.26-2.35,0.5-4.66,0.69c-2.31,0.2-4.23,0.33-5.75,0.4H1582.97z"/>
		<path class="st5" d="M888.88,581.49c-1.92-0.99-3.44-3.11-4.56-6.34c-1.12-3.24-2.05-8.99-2.78-17.25c-0.73-8.26-1.52-20.49-2.38-36.68
			c-1.52-28.88-2.28-51.22-2.28-67.02c0-20.95,1.49-32.35,4.46-34.2c1.45-0.92,5.55-1.83,12.29-2.73c6.74-0.89,14.41-1.64,23-2.23
			c10.51-0.73,18.9-1.09,25.18-1.09c5.95,0,9.78,0.3,11.5,0.89c3.7,1.79,5.62,3.55,5.75,5.3c0.13,1.75,0.2,2.79,0.2,3.12
			c0,2.91-1.55,5.25-4.66,7.04c-1.52,0.79-3.44,1.32-5.75,1.59c-3.5,0.4-10.15,0.93-19.93,1.59l-23.99,1.59h-0.69
			c-2.38,0-4.11,0.31-5.21,0.94c-1.09,0.63-1.69,1.87-1.78,3.72c-0.1,1.85-0.15,3.34-0.15,4.46c0,2.84,0.13,6.61,0.4,11.3
			l0.59,14.57c0.06,4.1,0.28,7.04,0.64,8.82c0.36,1.78,1.29,2.84,2.78,3.17c1.49,0.33,3.62,0.5,6.39,0.5h6.44
			c6.54,0.13,11.58,0.46,15.12,0.99c3.54,0.53,5.95,1.46,7.24,2.78c1.29,1.32,1.93,3.21,1.93,5.65c0,2.38-0.54,4.16-1.64,5.35
			c-1.09,1.19-3.32,2.03-6.69,2.53c-3.37,0.5-8.39,0.84-15.07,1.04l-15.66,0.6c0.13,13.35,0.59,27.31,1.39,41.89
			c0.79,14.57,1.19,23.78,1.19,27.61c0,4.16-0.46,6.84-1.39,8.03c-0.66,0.86-1.62,1.59-2.88,2.18c-1.72,0.92-3.37,1.39-4.96,1.39
			C891.55,582.58,890.2,582.22,888.88,581.49z"/>
		<path class="st5" d="M1001.8,578.12c-11.24-2.84-19.76-10.87-25.58-24.09c-5.82-13.22-9.35-32.48-10.61-57.8c-0.4-6.81-0.6-12.72-0.6-17.75
			c0-7.2,0.4-12.59,1.19-16.16c1.39-6.08,4.39-9.19,9.02-9.32c0.73-0.13,1.42-0.2,2.08-0.2c2.05,0,3.63,0.56,4.76,1.69
			c1.52,1.39,2.66,4.74,3.42,10.06c0.76,5.32,1.5,13.63,2.23,24.93c0.92,14.28,1.92,25.15,2.97,32.62
			c1.06,7.47,2.48,13.45,4.26,17.94c4.3,11.1,7.95,17.04,10.96,17.8c3.01,0.76,4.91,1.14,5.7,1.14c4.3,0,8.43-2.84,12.39-8.53
			c4.69-6.67,8.39-16.04,11.1-28.11c2.71-12.06,4.06-25.46,4.06-40.2l-0.2-10.41c0-3.24,0.13-5.88,0.4-7.93
			c0.4-3.04,1.25-5.09,2.58-6.15c1.32-1.06,3.3-1.59,5.95-1.59c4.56,0,7.75,2.56,9.57,7.68c1.82,5.12,2.73,13.27,2.73,24.44
			c0,21.22-2.58,39.06-7.73,53.54c-5.02,14.14-11.22,23.98-18.59,29.5c-7.37,5.52-14.69,8.28-21.96,8.28
			C1008.67,579.51,1005.3,579.05,1001.8,578.12z"/>
		<path class="st5" d="M1096.38,579.71l-2.08-0.69c-2.05-0.53-3.67-1.69-4.86-3.47c-1.19-1.78-2.08-5.14-2.68-10.06
			c-0.59-4.92-0.99-12.34-1.19-22.26c-0.27-13.22-0.4-28.58-0.4-46.1c0-9.91,0.02-17.66,0.05-23.25c0.03-5.58,0.18-9.67,0.45-12.24
			c0.26-2.58,0.69-4.33,1.29-5.25c0.59-0.92,1.45-1.72,2.58-2.38l0.5-0.3c1.78-1.19,3.47-1.78,5.06-1.78c1.39,0,2.68,0.46,3.87,1.39
			c2.64,1.98,4.36,5.52,5.16,10.61c0.33,2.51,0.6,4.21,0.79,5.11c0.2,0.89,0.46,1.34,0.79,1.34c0.46,0,1.22-0.56,2.28-1.69
			c9.45-8.66,19.5-12.99,30.14-12.99c11.7,0,22.31,5.09,31.82,15.27c4.56,5.35,6.84,9.98,6.84,13.88v0.5
			c-0.2,4.1-1.31,6.29-3.32,6.59c-2.02,0.3-3.22,0.45-3.62,0.45c-3.37,0-7.44-2.15-12.19-6.44c-6.61-6.48-12.99-9.72-19.13-9.72
			c-6.54,0-13.55,3.77-21.02,11.3c-3.64,3.44-6.25,6.64-7.83,9.62c-1.59,2.97-2.48,6.61-2.68,10.91c-0.2,4.3-0.3,8.36-0.3,12.19
			c0,4.89,0.1,10.74,0.3,17.55c0.2,7.47,0.3,13.72,0.3,18.74c0,2.97-0.03,5.52-0.1,7.63c-0.2,5.55-0.86,9.24-1.98,11.05
			c-1.12,1.82-3.01,3.06-5.65,3.72c-1.12,0.53-2.05,0.79-2.78,0.79H1096.38z"/>
	</g>
</g>
</svg>
