<?xml version="1.0" encoding="utf-8"?>
<!-- Generator: Adobe Illustrator 27.2.0, SVG Export Plug-In . SVG Version: 6.00 Build 0)  -->
<svg version="1.1" id="Layer_1" xmlns="http://www.w3.org/2000/svg" xmlns:xlink="http://www.w3.org/1999/xlink" x="0px" y="0px"
	 viewBox="0 0 1000 1000" style="enable-background:new 0 0 1000 1000;" xml:space="preserve">
<style type="text/css">
	.st0{fill:#FFFFFF;}
	.st1{fill:none;stroke:#FFFFFF;stroke-width:16;stroke-miterlimit:10;}
</style>
<g>
	<g>
		<path class="st0" d="M500,16c65.35,0,128.73,12.79,188.39,38.03c57.63,24.38,109.4,59.28,153.85,103.73s79.36,96.22,103.73,153.85
			C971.21,371.27,984,434.65,984,500s-12.79,128.73-38.03,188.39c-24.38,57.63-59.28,109.4-103.73,153.85
			s-96.22,79.36-153.85,103.73C628.73,971.21,565.35,984,500,984s-128.73-12.79-188.39-38.03
			c-57.63-24.38-109.4-59.28-153.85-103.73S78.4,746.02,54.03,688.39C28.79,628.73,16,565.35,16,500s12.79-128.73,38.03-188.39
			c24.38-57.63,59.28-109.4,103.73-153.85S253.98,78.4,311.61,54.03C371.27,28.79,434.65,16,500,16 M500,0C223.86,0,0,223.86,0,500
			s223.86,500,500,500s500-223.86,500-500S776.14,0,500,0L500,0z"/>
	</g>
	<circle class="st1" cx="500" cy="302.54" r="187.5"/>
	<path class="st1" d="M809,892.87c2.32-15.25,3.49-30.8,3.49-46.67c0-172.58-139.92-312.5-312.5-312.5
		c-172.58,0-312.5,139.92-312.5,312.5c0,15.87,1.17,31.42,3.49,46.67h-0.02c0.01,0,0.01,0.01,0.02,0.01
		c0.01,0.06,0.01,0.13,0.02,0.19h0.23c85.02,66.95,192.16,106.9,308.75,106.9s223.72-39.95,308.75-106.9h0.23
		c0.01-0.06,0.01-0.13,0.02-0.19c0.01,0,0.01-0.01,0.02-0.01H809z"/>
</g>
</svg>
