<?xml version="1.0" encoding="utf-8"?>
<!-- Generator: Adobe Illustrator 27.2.0, SVG Export Plug-In . SVG Version: 6.00 Build 0)  -->
<svg version="1.1" id="Layer_1" xmlns="http://www.w3.org/2000/svg" xmlns:xlink="http://www.w3.org/1999/xlink" x="0px" y="0px"
	 viewBox="0 0 1000 1000" style="enable-background:new 0 0 1000 1000;" xml:space="preserve">
<style type="text/css">
	.st0{fill:#A86B29;}
	.st1{fill:#231F20;}
	.st2{fill:#FFFFFF;}
	.st3{fill:#333333;}
	.st4{fill:#FF5C7F;}
</style>
<g>
	<g>
		<path d="M728.48,341.56c0-14.36,2.31-26.67,6.92-36.92s10.42-19.31,17.43-27.18c7-7.86,14.53-15.21,22.56-22.05
			c8.03-6.83,15.64-13.76,22.82-20.77c7.18-7,12.99-14.69,17.43-23.08c4.44-8.37,6.67-18.2,6.67-29.49
			c0-18.46-7.18-33.5-21.54-45.13c-14.36-11.62-34.7-17.44-61.02-17.44c-21.88,0-40.86,3.51-56.92,10.51
			c-16.07,7.01-29.74,17.35-41.02,31.02l-27.18-20.51c13.67-17.09,31.28-30.25,52.82-39.49c21.54-9.23,46.49-13.85,74.87-13.85
			c23.92,0,44.69,3.59,62.3,10.77c17.6,7.18,31.28,17.44,41.02,30.77c9.74,13.33,14.62,29.23,14.62,47.69
			c0,14.7-2.31,27.27-6.92,37.69c-4.62,10.43-10.43,19.66-17.43,27.69c-7.01,8.04-14.54,15.56-22.56,22.56
			c-8.04,7.01-15.64,14.1-22.82,21.28c-7.18,7.18-13,15.22-17.43,24.1c-4.45,8.89-6.67,19.49-6.67,31.79H728.48z M747.45,451.81
			c-7.18,0-13.42-2.64-18.72-7.95c-5.3-5.3-7.95-11.54-7.95-18.72c0-7.52,2.64-13.76,7.95-18.72c5.3-4.95,11.54-7.44,18.72-7.44
			c7.86,0,14.36,2.48,19.49,7.44c5.13,4.96,7.69,11.2,7.69,18.72c0,7.18-2.56,13.42-7.69,18.72
			C761.81,449.17,755.31,451.81,747.45,451.81z"/>
	</g>
</g>
<g>
	<g>
		<path d="M798.47,547.21c-4.75-1.94-8.16-5.38-10.23-10.33c-2.08-4.94-2.14-9.79-0.19-14.54c2.04-4.97,5.47-8.39,10.33-10.23
			c4.85-1.84,9.65-1.8,14.4,0.15c5.2,2.13,8.83,5.53,10.88,10.2c2.05,4.67,2.06,9.5,0.02,14.47c-1.94,4.75-5.33,8.19-10.16,10.3
			C808.69,549.35,803.67,549.34,798.47,547.21z M815.77,469.11c3.89-9.5,8.75-17.02,14.58-22.56c5.83-5.54,12.13-9.96,18.9-13.27
			c6.76-3.31,13.73-6.13,20.9-8.48c7.16-2.35,14.08-4.87,20.72-7.57c6.65-2.69,12.58-6.21,17.79-10.55
			c5.21-4.34,9.34-10.24,12.4-17.71c5-12.22,4.32-24.11-2.04-35.69c-6.36-11.58-18.24-20.93-35.66-28.06
			c-14.48-5.92-27.99-8.74-40.51-8.45c-12.53,0.29-24.38,3.43-35.55,9.42l-12.43-20.93c13.67-7.61,28.89-11.55,45.64-11.83
			c16.75-0.28,34.51,3.42,53.3,11.11c15.83,6.48,28.6,14.48,38.31,24c9.71,9.52,15.98,20.01,18.82,31.47
			c2.84,11.46,1.76,23.3-3.24,35.52c-3.98,9.73-8.91,17.42-14.79,23.07c-5.88,5.65-12.23,10.19-19.04,13.6
			c-6.82,3.42-13.83,6.36-21.04,8.82c-7.22,2.46-14.17,5.1-20.86,7.9s-12.72,6.55-18.06,11.23c-5.35,4.68-9.69,11.09-13.02,19.24
			L815.77,469.11z"/>
	</g>
</g>
<g>
	<g>
		<path class="st0" d="M488.94,219.22c27.01-2.18,56.21,13.48,79.45,23.74c50.27,26.44,90.28,66.95,97.87,124.77
			c1.64,24.85-2.68,53.5,8.15,78.35c7.04,18.91,38.39,43.22,38.4,61.58c0.01,27.56-43.76,17.85-58.89,12.45
			c-30.8-12.95-45.95-36.72-61.62-62.65c-29.73-45.37-45.98-110.21-94.09-137.2L488.94,219.22z"/>
		<path class="st1" d="M488.86,222.91c20.79-1.29,40.56,6.56,59.22,14.88c17.56,7.83,34.15,16.48,49.75,27.8
			c31.59,22.9,55.34,55.16,63.31,93.71c4.35,21.06,0.76,43.18,3.46,64.51c2.26,17.79,9.64,31.93,20.66,45.67
			c8.69,10.84,24.28,24.63,23.79,39.71c-0.48,14.9-20.71,13.93-30.97,12.81c-48.9-5.36-75.18-50.18-96.23-89.76
			c-21.9-41.17-39.13-90.59-81.78-115.13c-4.12-2.37-7.92,3.96-3.79,6.33c31.68,18.23,48.84,51.96,64.56,83.51
			c15.49,31.12,31.35,63.88,54.64,90.08c19.07,21.47,47.51,34.73,76.49,32.74c10.71-0.73,21.06-5.37,23.9-16.51
			c3.31-12.98-6.46-25.33-13.87-34.85c-7.96-10.22-17.35-19.67-23.2-31.34c-8.58-17.12-8.44-37.4-8.42-56.06
			c0.01-16.25-0.83-31.28-5.43-46.96c-4.28-14.59-11.19-28.33-19.72-40.85c-16.89-24.84-40.95-44.02-66.77-58.91
			c-13.51-7.8-28.34-13.96-42.83-19.68c-14.8-5.84-30.57-10.05-46.59-9.04C484.3,215.83,484.12,223.2,488.86,222.91L488.86,222.91z"
			/>
	</g>
	<g>
		<path class="st0" d="M236.63,275.54c-24.85,10.81-46.45,25.42-66.44,46.51c-19.44,23.24-36.18,48.1-37.79,78.37
			c0.01,27.56,11.91,56.74,4.9,83.75c-5.93,31.35-30.78,51.35-50.21,74.59c-15.66,20-21.06,35.14,5.97,42.15
			c52.96,18.88,121.57-9.79,154.51-52.49c45.89-55.14,50.19-129.7,35.57-197.24L236.63,275.54z"/>
		<path class="st1" d="M234.82,272.32c-37.3,16.49-68.22,42.63-89.49,77.51c-9.39,15.38-15.42,32.47-16.6,50.49
			c-1.32,19.95,5.89,40.28,7,60.15c1.11,20-5.18,38.9-16.45,55.25c-10.32,14.95-24.28,26.81-35.34,41.14
			c-7.5,9.73-19.31,25.13-10.25,37.43c4.26,5.78,11.73,8.29,18.34,10.14c8.26,2.32,16.18,4.5,24.74,5.46
			c59.85,6.75,117.72-30.49,148.41-79.7c33.22-53.28,34.27-120.21,21.54-179.92c-0.99-4.65-8.14-2.85-7.16,1.79
			c15.48,72.6,8.1,154.35-47.94,208.47c-25.89,25.02-62.21,40.9-98.18,42.52c-8.59,0.39-17.22-0.29-25.64-1.9
			c-8.76-1.68-20.45-4.08-27.22-10.1c-12.43-11.07,15.32-36.88,22.1-44.29c16.07-17.54,32.08-35.58,37.71-59.34
			c6.61-27.89-2.63-54.34-4.19-82.18c-1.5-26.88,14.02-51.88,29.82-72.28c18.72-24.15,44.66-41.95,72.41-54.22
			C242.79,276.83,239.12,270.42,234.82,272.32L234.82,272.32z"/>
	</g>
	<g>
		<path class="st0" d="M235.72,638.65c-21.63-22.14-13.55-81.59-15.73-108.6c0.51-43.77-3.29-86.46-7.09-129.13
			c-3.8-33.5-15.17-78.88,6.97-109.7c19.98-30.26,66.98-35.15,99.94-41.12c41.61-8.12,80.5-17.87,121.57-28.15
			c30.25-7.58,54.57-11.37,75.12,15.63c27.03,34.57,34.62,83.2,44.91,124.26c14.08,65.37,49.24,132.35,52.52,200.45L235.72,638.65z"
			/>
		<path class="st1" d="M238.37,636.07c-10.62-11.42-12.63-28.87-13.75-43.74c-1.22-16.16-0.51-32.41-0.5-48.6
			c0.03-43.9-2.65-87.64-6.5-131.36c-3-34.03-13.87-70.81-2.43-104.26c12.6-36.87,54.3-45.53,88.09-51.42
			c44-7.69,87.35-18.24,130.65-29.07c16.09-4.03,32.66-9.04,49.41-7.03c18.65,2.22,30.54,17.97,39.54,32.91
			c21.54,35.75,27.64,79.49,37.32,119.44c10.66,43.98,28.54,85.81,40.11,129.54c5.17,19.55,8.85,39.51,9.95,59.71
			c0.26,4.72,7.63,4.92,7.38,0.17c-2.43-44.78-17.23-87.34-31.45-129.49c-7.16-21.22-14.16-42.5-19.44-64.28
			c-4.86-20.04-9.15-40.21-14.47-60.13c-5.21-19.53-11.87-38.77-21.74-56.47c-7.75-13.89-18.24-28.55-33.33-35.02
			c-13.16-5.65-27.34-4.67-41.12-2.12c-21.02,3.86-41.72,10.09-62.49,15.13c-22.91,5.56-45.89,10.78-69,15.42
			c-17.4,3.49-35.03,5.76-52.24,10.19c-16.05,4.13-31.71,10.41-44.51,21.11c-12.26,10.25-19.67,25.45-22.85,40.86
			c-3.32,16.11-2.2,32.92-0.29,49.12c2.24,19,4.9,37.82,6.54,56.9c3.65,42.23,5.85,84.61,5.47,127
			c-0.15,16.84-0.64,33.76,1.37,50.52c1.72,14.25,4.95,29.29,15.01,40.12C236.33,644.71,241.6,639.55,238.37,636.07L238.37,636.07z"
			/>
	</g>
	<g>
		<path class="st2" d="M246.51,590.02c-43.73,72.96,6.55,126.98,81.13,149.64c84.31,24.81,188.05,8.01,262.58-42.81
			c76.16-53.53,72.34-142.14,0.44-199.93c-33.24-27.27-74.58-40.63-115.61-51.13c-21.24-5.44-42.69-10.11-63.98-15.37
			c-54.86-13.59-68.65,34.45-94.8,70.53C294.49,531.01,265.6,558.18,246.51,590.02z"/>
		<path class="st1" d="M243.35,588.12c-17.47,29.72-23.39,64.09-5.37,94.96c17.65,30.24,51.85,47.99,83.95,58.63
			c73.14,24.27,157.78,13.95,227.04-17.45c32.14-14.57,63.08-34.45,82.69-64.46c15.87-24.29,21.2-53.77,15.77-82.13
			c-5.98-31.26-25.48-58.51-49.08-79.11c-30.19-26.36-67.59-41.12-105.7-51.88c-15.6-4.4-31.38-8.15-47.15-11.85
			c-15.75-3.71-31.77-8.94-47.94-10.3c-22.61-1.91-40.28,10.51-53.6,27.55c-7.07,9.05-12.88,19.09-18.91,28.85
			c-7.61,12.32-15.99,23.93-25.15,35.16C280.6,539.72,259.3,561.9,243.35,588.12c-2.48,4.07,3.85,7.85,6.33,3.79
			c21.43-35.21,52.65-62.94,75.36-97.22c16.64-25.11,31.5-61.23,66.21-62.93c10.2-0.51,20.11,2.53,29.92,4.88
			c12.05,2.9,24.14,5.67,36.19,8.55c20.67,4.95,41.26,10.35,61.34,17.32c37.55,13.01,72.52,33.66,97.35,65.23
			c19.38,24.63,29.86,56.5,25.01,87.79c-5.14,33.12-27.37,61.01-54.59,79.41c-66.2,44.73-152.67,61.76-231.07,47.55
			c-36.95-6.69-75.45-21.42-101.2-49.78c-11.37-12.53-18.76-28.35-20.1-45.27c-1.57-19.71,5.77-38.82,15.58-55.52
			C252.08,587.8,245.76,584.02,243.35,588.12z"/>
	</g>
	<g>
		<path class="st3" d="M450.25,477.67c32.44,22.99-9.18,59.9-31.77,69C317.83,587.22,357.45,411.95,450.25,477.67z"/>
		<path class="st1" d="M448.35,480.84c28.24,21.02-10.43,53.17-30.51,62.14c-15.01,6.71-38.63,11.43-49.54-4.69
			c-8.47-12.52-5.68-30.37,0.36-43.25c7.21-15.41,21.27-27.39,38.66-28.52C422.28,465.55,436.41,472.51,448.35,480.84
			c3.91,2.73,7.67-3.63,3.79-6.33c-17.08-11.91-38.4-19.9-58.94-12.51c-15.85,5.69-27.15,19.3-33.19,34.62
			c-5.43,13.76-6.42,30.71,1.02,43.92c8.43,14.96,25.95,17.62,41.51,14.81c20.05-3.62,38.39-15.34,51.52-30.71
			c6.29-7.36,11.19-16.13,11.79-25.94c0.63-10.23-5.96-18.43-13.7-24.19C448.32,471.67,444.57,478.03,448.35,480.84z"/>
	</g>
	<path class="st1" d="M458.42,360.08c1.17,4.62,2.81,8.22,5.8,11.95c2.39,2.96,7.05-0.12,6.21-3.47c-1.08-4.32-2.17-8.65-3.25-12.97
		c-1.01-4.04-7.2-3.38-7.27,0.81c-0.12,7.34,4.1,9.73,8.62,14.55c1.81,1.92,5.58,1.17,6.17-1.55c1.23-5.69,0.06-8.77-3.03-13.65
		c-2.15-3.41-7.98-1.44-6.79,2.72c1.55,5.34,4.37,7.53,7.97,11.41c1.92,2.07,5.37,1.03,6.17-1.55c2.98-9.53-1.9-15.28-10.63-18.62
		c-2.18-0.83-4.77,1.19-4.72,3.46c0.28,11.75,7.13,25.3,20.81,22.57c1.52-0.31,2.85-1.92,2.79-3.49
		c-0.42-12.23-9.31-20.16-21.44-19.98c-1.76,0.02-3.03,1.04-3.62,2.66c-4.66,12.54,4.5,29.06,19.03,26.21
		c1.15-0.23,2.43-1.35,2.65-2.55c1.97-10.81-1.69-20.76-12.25-25.1c-1.42-0.59-3.53,0.29-4.19,1.65c-3.03,6.21-1.86,11.9,3.97,15.86
		c3.94,2.67,7.71-3.66,3.79-6.33c-2.14-1.45-2.85-2.86-1.44-5.75c-1.4,0.55-2.81,1.09-4.19,1.65c6.53,2.7,8.41,9.46,7.23,15.96
		c0.88-0.85,1.76-1.7,2.65-2.55c-9.22,1.8-12.7-10.18-10.16-17c-1.21,0.89-2.41,1.77-3.62,2.66c7.95-0.12,13.96,4.12,14.23,12.43
		c0.93-1.16,1.87-2.34,2.79-3.49c-8.4,1.67-11.48-8.71-11.64-15.24c-1.58,1.16-3.15,2.3-4.72,3.46c4.99,1.92,7.3,4.02,5.6,9.48
		c2.05-0.51,4.12-1.03,6.17-1.55c-2.59-2.8-4.98-4.18-6.09-8.04c-2.27,0.91-4.52,1.81-6.79,2.72c1.9,2.99,3.14,4.46,2.38,7.95
		c2.05-0.51,4.12-1.03,6.17-1.55c-2.86-3.05-6.59-4.54-6.52-9.22c-2.43,0.26-4.84,0.54-7.27,0.81c1.08,4.32,2.17,8.65,3.25,12.97
		c2.07-1.16,4.14-2.32,6.21-3.47c-2.17-2.69-3.09-5.28-3.93-8.58C464.39,353.68,457.25,355.47,458.42,360.08L458.42,360.08z"/>
	<path class="st1" d="M295.88,392.01c-5.93,0.25-10.42,3.21-12.32,8.92c-2.09,6.26,0.73,13.1,4.6,17.95
		c3.36,4.22,8.73,6.62,13.78,4.06c5.44-2.74,6.77-10.45,7.27-15.83c0.43-4.65,0.91-10.21-2.01-14.23c-2.26-3.11-5.93-4.24-9.47-2.6
		c-8.86,4.09-8.09,17.15-5.5,24.68c0.65,1.9,2.4,3.2,4.47,2.68c1.43-0.36,2.88-0.72,4.32-1.08c1.18-0.3,2.39-1.3,2.65-2.55
		c0.91-4.49,1.41-9.17-0.95-13.32c-2.16-3.81-6.57-5.05-10.62-5.46c-1.66-0.17-3.15,1.16-3.62,2.66
		c-2.64,8.25,0.47,14.36,7.59,18.78c1.59,0.99,4.2,0.52,5.06-1.27c2.24-4.61,1.06-9.38-0.13-14.13c-1.16-4.61-8.3-2.82-7.16,1.79
		c0.6,2.38,2.11,6.17,0.96,8.56c1.69-0.42,3.38-0.85,5.06-1.27c-4.35-2.71-5.93-5.3-4.31-10.38c-1.21,0.89-2.41,1.77-3.62,2.66
		c5.58,0.55,5.64,4.5,4.65,9.33c0.88-0.85,1.76-1.7,2.65-2.55c-1.43,0.36-2.88,0.72-4.32,1.08c1.49,0.9,2.99,1.79,4.47,2.68
		c-1.54-4.49-2.99-11.24,0.45-15.33c0.35-0.4,1.17-0.98,0.95-0.91c0.38-0.14,0.27-0.05,0.18-0.11c-0.21-0.11,0.35,0.32,0.56,0.88
		c0.44,1.16,0.59,2.41,0.64,3.64c0.15,2.94-0.48,18.02-6.16,14.8c-5.3-3.01-9.46-16.4-0.3-16.77
		C300.44,399.19,300.63,391.82,295.88,392.01L295.88,392.01z"/>
	<g>
		<path class="st4" d="M493.48,640.69c1.21,27.56,13.68,65.7-24.04,77c-30.16,9.02-50.86-34.37-56.05-58.89
			c21.38-6.96,29.62-33.94,22.97-53.63c9.68,29.59,28.93,37.56,57.67,37.68l-0.54-2.17L493.48,640.69z"/>
		<path class="st1" d="M489.79,640.6c1.28,25.46,12.14,61.57-19.34,72.89c-30.23,10.88-48.55-33.12-53.49-55.6
			c-0.9,1.49-1.79,2.99-2.68,4.47c23.26-8.34,32.7-35.48,25.65-58.11c-2.39,0.6-4.77,1.19-7.16,1.79
			c4.37,12.86,11.08,24.26,22.71,31.75c11.23,7.23,25.45,8.58,38.46,8.72c4.76,0.05,4.92-7.32,0.17-7.38
			c-11.54-0.13-23.2-1.26-33.49-6.87c-10.72-5.85-16.88-16.83-20.68-28.01c-1.52-4.45-8.59-2.78-7.16,1.79
			c5.74,18.39-0.75,42.16-20.3,49.16c-1.93,0.69-3.15,2.36-2.68,4.47c5.78,26.31,25.4,69.19,58.98,61.99
			c16.43-3.52,27.72-16.17,30.45-32.42c2.7-16.08-1.24-32.4-2.06-48.49C496.92,636.05,489.54,635.84,489.79,640.6L489.79,640.6z"/>
	</g>
	<path class="st1" d="M354.12,638.48c12.49,13.16,26.6,26.42,45.58,27.84c13.74,1.03,26.88-6.41,33.73-18.14
		c7.75-13.27,7.39-30.44,6.19-45.21c-1.75-21.29-6.78-42.27-11.94-62.95c-2.39,0.6-4.77,1.19-7.16,1.79
		c4.9,19.62,9.55,39.38,16.87,58.28c5.77,14.91,13.6,29.58,26.72,39.2c11.34,8.32,26.78,9.66,39.18,3.11
		c14.81-7.82,20.72-25.7,23.03-41.12c0.7-4.7-6.69-4.81-7.38-0.17c-2.17,14.53-7.98,29.72-22.11,36.25
		c-12.71,5.87-27.06-1.36-35.82-10.6c-9.98-10.53-15.58-25.2-20.17-38.69c-5.36-15.73-9.14-31.96-13.16-48.07
		c-1.16-4.61-8.3-2.82-7.16,1.79c4.44,17.79,8.57,35.71,10.97,53.91c1.86,14.17,2.65,29.42-1.92,43.17
		c-4.08,12.28-15.08,19.87-27.91,20.08c-17.38,0.29-31.22-14.06-42.25-25.69C356.12,629.86,350.85,635.02,354.12,638.48
		L354.12,638.48z"/>
	<rect x="298.6" y="396.41" transform="matrix(0.97 -0.243 0.243 0.97 -87.9319 85.2646)" class="st1" width="6.07" height="5.28"/>
</g>
</svg>
