<?xml version="1.0" encoding="utf-8"?>
<!-- Generator: Adobe Illustrator 27.2.0, SVG Export Plug-In . SVG Version: 6.00 Build 0)  -->
<svg version="1.1" id="Layer_1" xmlns="http://www.w3.org/2000/svg" xmlns:xlink="http://www.w3.org/1999/xlink" x="0px" y="0px"
	 viewBox="0 0 30 30" style="enable-background:new 0 0 30 30;" xml:space="preserve">
<style type="text/css">
	.st0{fill:#ffffff;}
</style>
<g>
	<g>
		<path class="st0" d="M6.2,7.7l16.1,16.1c0.4,0.4,1,0.4,1.4,0h0c0.4-0.4,0.4-1,0-1.4L23,21.6l-4.2-4.2L7.7,6.2C7.5,6.1,7.2,6,7,5.9
			C6.7,5.9,6.4,6,6.2,6.2C5.8,6.6,5.9,7.3,6.2,7.7z"/>
	</g>
	<path class="st0" d="M23.8,7.7L7.7,23.8c-0.4,0.4-1,0.4-1.4,0h0c-0.4-0.4-0.4-1,0-1.4L7,21.6l4.2-4.2L22.3,6.2
		C22.5,6.1,22.8,6,23,5.9c0.3,0,0.6,0.1,0.8,0.3C24.2,6.6,24.1,7.3,23.8,7.7z"/>
</g>
</svg>
