<?xml version="1.0" encoding="utf-8"?>
<!-- Generator: Adobe Illustrator 27.2.0, SVG Export Plug-In . SVG Version: 6.00 Build 0)  -->
<svg version="1.1" id="Layer_1" xmlns="http://www.w3.org/2000/svg" xmlns:xlink="http://www.w3.org/1999/xlink" x="0px" y="0px"
	 viewBox="0 0 30 30" style="enable-background:new 0 0 30 30;" xml:space="preserve">
<style type="text/css">
	.st0{fill:#ffffff;}
	.st1{fill:#ffffff;}
</style>
<g>
	<path class="st0" d="M26.5,5.9c-0.3,0-0.5,0.1-0.7,0.3L10.5,21.6l-6.3-6.3c-0.4-0.4-1-0.4-1.4,0c-0.4,0.4-0.4,1,0,1.4c0,0,0,0,0,0
		l7,7c0.4,0.4,1,0.4,1.4,0L27.3,7.7c0.4-0.4,0.4-1,0-1.4C27.1,6,26.8,5.9,26.5,5.9z"/>
	<path class="st1" d="M9.8,7.7l16.1,16.1c0.4,0.4,1,0.4,1.4,0h0c0.4-0.4,0.4-1,0-1.4l-0.7-0.7l-4.2-4.2L11.2,6.2
		C11,6.1,10.8,6,10.5,5.9C10.2,5.9,10,6,9.8,6.2C9.4,6.6,9.4,7.3,9.8,7.7z"/>
</g>
</svg>
