<?xml version="1.0" encoding="utf-8"?>
<!-- Generator: Adobe Illustrator 27.2.0, SVG Export Plug-In . SVG Version: 6.00 Build 0)  -->
<svg version="1.1" id="Layer_1" xmlns="http://www.w3.org/2000/svg" xmlns:xlink="http://www.w3.org/1999/xlink" x="0px" y="0px"
	 viewBox="0 0 1000 1000" style="enable-background:new 0 0 1000 1000;" xml:space="preserve">
<style type="text/css">
	*{fill:#FFFFFF;}
</style>
<g>
	<g>
		<path d="M344.06,729.91c-3.56,0-6.68-2.4-7.61-5.84c-0.21-0.77-111.52-416.19-126.12-470.69l-202.45,0
			c-4.35,0-7.87-3.53-7.87-7.87s3.53-7.87,7.87-7.87l208.5,0c3.56,0,6.68,2.39,7.61,5.84l122.2,456.05
			c1.82,6.79,3.06,11.43,3.91,14.64l533.68,0l100.75-375.98c1.13-4.2,5.45-6.69,9.64-5.57c4.2,1.13,6.69,5.44,5.57,9.64
			L897.42,724.07c-0.93,3.48-4.08,5.84-7.6,5.84c-0.03,0-0.07,0-0.1,0C881.94,729.91,349.47,729.91,344.06,729.91z"/>
		<path d="M485.98,882.36c-32.62,0-59.16-26.54-59.16-59.16s26.54-59.16,59.16-59.16c32.62,0,59.16,26.54,59.16,59.16
			S518.6,882.36,485.98,882.36z M485.98,779.79c-23.94,0-43.41,19.47-43.41,43.41s19.47,43.41,43.41,43.41
			c23.94,0,43.41-19.47,43.41-43.41S509.92,779.79,485.98,779.79z"/>
		<path d="M747.89,882.36c-32.62,0-59.16-26.54-59.16-59.16s26.54-59.16,59.16-59.16c32.62,0,59.16,26.54,59.16,59.16
			S780.51,882.36,747.89,882.36z M747.89,779.79c-23.94,0-43.41,19.47-43.41,43.41s19.47,43.41,43.41,43.41
			c23.94,0,43.41-19.47,43.41-43.41S771.83,779.79,747.89,779.79z"/>
	</g>
	<rect x="344.06" y="714.16" width="545.76" height="15.75"/>
</g>
</svg>
