<?xml version="1.0" encoding="utf-8"?>
<!-- Generator: Adobe Illustrator 27.2.0, SVG Export Plug-In . SVG Version: 6.00 Build 0)  -->
<svg version="1.1" id="Layer_1" xmlns="http://www.w3.org/2000/svg" xmlns:xlink="http://www.w3.org/1999/xlink" x="0px" y="0px"
	 viewBox="0 0 1750 636.7" style="enable-background:new 0 0 1750 636.7;" xml:space="preserve">
<style type="text/css">
	.st0{fill:#A86B29;}
	.st1{fill:#231F20;}
	.st2{fill:#FFFFFF;}
	.st3{fill:#333333;}
	.st4{fill:#FF5C7F;}
</style>
<g>
	<g>
		<g>
			<g>
				<path class="st0" d="M597.8,21c32.3,5.4,61.9,32.3,86.1,51.1c51.1,45.7,86.1,104.9,78,174.8c-5.4,29.6-18.8,61.9-13.5,94.1
					c2.7,24.2,32.3,61.9,26.9,83.4c-8.1,32.3-56.5,8.1-72.6-2.7c-32.3-24.2-43-56.5-53.8-91.4C627.4,268.4,627.4,187.7,579,142
					L597.8,21z"/>
				<path class="st1" d="M596.6,25.2c24.7,4.6,45.6,19.6,65,34.8c18.3,14.3,35.2,29.3,50.1,47.1c30.3,36.1,48.6,80.8,46.6,128.3
					c-1.1,25.9-11.8,50.8-14.9,76.5c-2.6,21.5,1.9,40.2,10.8,59.5c7,15.2,21.2,36,16.2,53.5c-4.9,17.3-28.3,10.2-40,5.9
					c-55.7-20.6-73.3-80.8-86.3-133.3c-13.6-54.6-19.3-117.6-62-158.8c-4.1-4-10.4,2.3-6.3,6.3c31.7,30.6,41.9,75.2,51.1,116.7
					c9,41,18,84,37.5,121.5c16,30.7,45.4,54.6,80,60.8c12.8,2.3,26.2-0.1,32.8-12.3c7.7-14.2-0.1-31.5-6-44.9
					c-6.3-14.3-14.5-28.1-18-43.5c-5-22.6,1.1-46.3,6.6-68.1c4.8-19,8.2-36.9,7.4-56.6c-0.7-18.3-4.8-36.4-11.1-53.6
					c-12.5-34-35-63.6-60.9-88.6c-13.5-13.1-29.1-24.7-44.4-35.6C635.3,29.8,618,20.2,599,16.7C593.4,15.6,591,24.2,596.6,25.2
					L596.6,25.2z"/>
			</g>
			<g>
				<path class="st0" d="M285.8,12.9c-32.3,5.4-61.9,16.1-91.4,35c-29.6,21.5-56.5,45.7-67.2,80.7c-8.1,32.3-2.7,69.9-18.8,99.5
					c-16.1,35-51.1,51.1-80.7,72.6c-24.2,18.8-35,35-5.4,51.1c56.5,37.7,145.2,24.2,196.3-16.1c69.9-51.1,96.8-137.2,99.5-220.5
					L285.8,12.9z"/>
				<path class="st1" d="M284.7,8.6c-48.5,8.4-92.4,29.9-127.5,64.5c-15.5,15.3-27.6,33.5-34.3,54.2c-7.4,23-4.9,48.9-9.4,72.5
					c-4.6,23.8-17.5,44-35.5,59.9c-16.5,14.5-36.3,24.3-53.4,37.8c-11.6,9.2-30,23.8-23,40.8c3.3,8,11.3,13.1,18.5,17.3
					c9,5.1,17.6,10,27.4,13.6c68.1,25.5,146.8-1.2,197.2-49.8c54.5-52.6,75.4-130.7,78-204.4c0.2-5.7-8.7-5.7-8.9,0
					c-3.2,89.6-35.8,183.1-117.3,230c-37.7,21.7-84.8,29.6-127.4,21c-10.2-2.1-20.1-5.4-29.5-9.8c-9.8-4.5-22.8-10.8-28.9-19.8
					c-11.3-16.6,28.8-38.7,38.9-45.4c24-15.8,48-32.2,61.6-58.4c15.9-30.7,12.9-64.4,19.2-97.5c6.1-31.9,31.6-56.6,56.1-75.9
					c29-22.8,64.6-36,100.7-42.2C292.7,16.2,290.3,7.6,284.7,8.6L284.7,8.6z"/>
			</g>
			<g>
				<path class="st0" d="M178.3,437.8c-18.8-32.3,8.1-99.5,13.5-131.8c13.5-51.1,21.5-102.2,29.6-153.3
					c5.4-40.3,5.4-96.8,40.3-126.4C293.9-3.3,350.4,4.8,390.7,7.5c51.1,2.7,99.5,2.7,150.6,2.7c37.7,0,67.2,2.7,83.4,40.3
					c21.5,48.4,16.1,107.6,16.1,158.7c-2.7,80.7,18.8,169.4,2.7,250.1L178.3,437.8z"/>
				<path class="st1" d="M182.1,435.6c-9.1-16.5-6.3-37.5-3.3-55.2c3.3-19.3,8.9-38.1,13.7-57.1c12.9-51.4,22.6-103.4,30.9-155.7
					c6.5-40.7,4.5-87,27.7-122.8c25.6-39.5,76.9-37.4,118.2-34.4c53.8,3.9,107.6,4.3,161.5,4.3c20,0,40.9-1,59.9,6.3
					c21.2,8.1,30.5,30,36.7,50.1c14.7,48.2,9,101.2,8.7,150.8c-0.4,54.6,8.3,108.9,9,163.4c0.3,24.4-1.2,48.9-5.9,72.8
					c-1.1,5.6,7.5,8,8.6,2.4c10.3-53.2,5.4-107.3,1.2-160.8c-2.2-26.9-4.1-53.9-3.9-81c0.2-24.9,1.1-49.8,0.7-74.7
					c-0.4-24.4-2.5-48.9-8.9-72.5c-5-18.5-13-38.8-28.7-50.8c-13.8-10.5-30.6-13.5-47.5-14.5c-25.8-1.6-51.8-0.4-77.6-0.6
					c-28.4-0.2-56.9-0.8-85.3-2.2c-21.4-1-42.7-3.5-64.2-3.4c-20,0.1-40.2,2.9-58.3,11.7c-17.4,8.4-30.5,24-38.7,41.1
					c-8.6,17.9-12.2,37.9-14.7,57.4c-3,22.9-5.4,45.7-9,68.5c-8.1,50.5-18,100.8-30.9,150.3c-5.1,19.7-10.7,39.3-13.2,59.6
					c-2.2,17.2-2.8,35.8,5.8,51.4C177.2,445.1,184.9,440.6,182.1,435.6L182.1,435.6z"/>
			</g>
			<g>
				<path class="st2" d="M205.2,384c-72.6,72.6-29.6,150.6,51.1,199c91.4,53.8,217.8,64.5,320,26.9c104.9-40.3,126.4-145.2,59.2-234
					c-30.9-41.7-75.4-69.5-120.4-93.8c-23.3-12.6-47-24.4-70.4-36.8c-60.2-32-90.5,20.2-131.7,54.8C278.7,329,236.9,352.3,205.2,384
					z"/>
				<path class="st1" d="M202,380.9c-29.2,29.7-46.2,68.2-34.1,109.6c11.8,40.6,46.6,71.4,81.1,93.3c78.5,49.9,180.7,62.6,271,46.2
					c41.9-7.6,84-21.8,115.7-51.2c25.7-23.8,40.6-56.7,42.6-91.6c2.2-38.4-12.7-76-34.3-107c-27.6-39.7-67.1-68-108.6-91.8
					c-17-9.7-34.3-18.7-51.7-27.7c-17.4-9-34.6-19.8-53.1-26.1c-25.9-8.9-50.2,0.5-70.8,16.5c-10.9,8.5-20.7,18.6-30.6,28.2
					c-12.5,12.2-25.7,23.3-39.8,33.8C259.8,335.1,228.4,354.8,202,380.9c-4.1,4,2.2,10.3,6.3,6.3c35.4-34.9,80.1-58.3,116.8-91.7
					c26.8-24.5,54.8-62.4,96-54.3c12.1,2.4,22.8,8.9,33.6,14.5c13.3,6.9,26.6,13.7,39.9,20.6c22.7,11.9,45.3,24.2,66.8,38.3
					c40.1,26.3,75,60.7,94.8,104.9c15.5,34.5,18.4,74.9,3.5,110.1c-15.7,37.3-49.9,63.4-87.2,77c-90.6,33-196.9,27.5-284.5-12.1
					c-41.3-18.7-82.1-47.2-103.9-88c-9.7-18-13.6-38.7-10.3-58.9c3.9-23.5,18.1-43.8,34.5-60.4C212.3,383.1,206,376.8,202,380.9z"/>
			</g>
			<g>
				<path class="st3" d="M476.7,312.2c31.2,36.4-28.3,67.4-57.4,71.5C289.5,401.7,387.3,208.1,476.7,312.2z"/>
				<path class="st1" d="M473.5,315.4c26.9,32.9-27.8,59.2-54,63.8c-19.6,3.4-48.6,2-56.6-20c-6.3-17.1,2.3-37.2,13.1-50.5
					c13-15.9,32.9-25.8,53.6-22C447.5,289.8,462,302.1,473.5,315.4c3.8,4.3,10.1-2,6.3-6.3c-16.5-18.9-39.1-34.6-65.4-31.9
					c-20.2,2-37.4,14.6-49,30.8c-10.4,14.5-16.5,34.1-11.7,51.7c5.5,20,25.2,28.2,44.3,29.5c24.5,1.6,49.5-6.7,69.3-20.8
					c9.5-6.8,17.8-15.6,21.4-26.9c3.7-11.8-1.6-23.3-8.9-32.4C476.2,304.6,469.9,311,473.5,315.4z"/>
			</g>
			<path class="st1" d="M520.7,176.9c0,5.8,0.9,10.5,3.3,15.7c1.9,4.2,8.3,1.9,8.3-2.2c0-5.4,0-10.8,0-16.1c0-5-7.4-6.1-8.7-1.2
				c-2.3,8.6,1.9,12.6,5.8,19.6c1.6,2.8,6.2,3,7.7,0c3.1-6.3,2.6-10.2,0.4-16.9c-1.5-4.6-8.9-4-8.7,1.2c0.2,6.7,2.9,10.1,6,15.7
				c1.6,3,6,2.8,7.7,0c6.3-10.3,2.3-18.4-7-24.9c-2.3-1.6-5.9,0-6.5,2.7c-3.1,13.8,0.9,31.7,17.7,32.5c1.9,0.1,3.9-1.4,4.3-3.3
				c3.1-14.4-5-26.3-19.2-29.7c-2.1-0.5-3.9,0.3-5,2c-9.1,13.3-3.3,35.3,14.6,36.3c1.4,0.1,3.2-0.9,3.8-2.2c5.5-12.1,4.1-24.8-7-33
				c-1.5-1.1-4.2-0.7-5.4,0.7c-5.4,6.4-5.7,13.4,0,19.7c3.8,4.3,10.1-2,6.3-6.3c-2.1-2.3-2.5-4.2,0-7.2c-1.8,0.2-3.6,0.5-5.4,0.7
				c6.9,5.1,7.1,13.5,3.8,20.8c1.3-0.7,2.6-1.5,3.8-2.2c-11.3-0.6-11.9-15.6-6.9-22.9c-1.7,0.7-3.4,1.4-5,2
				c9.3,2.2,15.1,8.9,13,18.7c1.4-1.1,2.9-2.2,4.3-3.3c-10.3-0.5-10.9-13.6-9.2-21.3c-2.2,0.9-4.4,1.8-6.5,2.7
				c5.3,3.7,7.4,6.8,3.8,12.7c2.6,0,5.1,0,7.7,0c-2.2-4-4.6-6.3-4.8-11.2c-2.9,0.4-5.8,0.8-8.7,1.2c1.4,4.1,2.4,6.1,0.4,10
				c2.6,0,5.1,0,7.7,0c-2.5-4.4-6.4-7.2-4.9-12.7c-2.9-0.4-5.8-0.8-8.7-1.2c0,5.4,0,10.8,0,16.1c2.8-0.7,5.5-1.5,8.3-2.2
				c-1.8-3.8-2.1-7.1-2.1-11.2C529.6,171.2,520.7,171.2,520.7,176.9L520.7,176.9z"/>
			<path class="st1" d="M321.1,166.7c-7-1.5-13.1,0.7-17,6.8c-4.3,6.7-3,15.6,0.1,22.4c2.7,5.9,8.3,10.3,15,8.8
				c7.2-1.6,11-10.3,13.2-16.4c1.9-5.3,4.1-11.7,1.8-17.3c-1.7-4.3-5.7-6.7-10.3-5.8c-11.6,2.2-14.5,17.7-13.7,27.3
				c0.2,2.4,1.9,4.5,4.5,4.5c1.8,0,3.6,0,5.4,0c1.5,0,3.2-0.8,3.8-2.2c2.4-5,4.4-10.3,2.8-15.9c-1.4-5.1-6.2-7.8-10.8-9.5
				c-1.9-0.7-4,0.4-5,2c-5.5,8.9-3.7,17,3.4,24.2c1.6,1.6,4.8,1.8,6.3,0c4-4.7,4-10.7,4-16.6c0-5.7-8.9-5.7-8.9,0
				c0,3,0.7,7.9-1.4,10.3c2.1,0,4.2,0,6.3,0c-4.3-4.4-5.4-7.9-2-13.4c-1.7,0.7-3.4,1.4-5,2c6.4,2.3,5.3,6.9,2.7,12.3
				c1.3-0.7,2.6-1.5,3.8-2.2c-1.8,0-3.6,0-5.4,0c1.5,1.5,3,3,4.5,4.5c-0.5-5.7-0.2-14,5-17.8c0.5-0.4,1.7-0.8,1.4-0.8
				c0.5-0.1,0.3,0,0.2-0.1c-0.2-0.2,0.3,0.5,0.4,1.2c0.2,1.5,0,3-0.3,4.5c-0.7,3.5-5.8,21-11.6,15.5c-5.3-5.1-6.3-22,4.6-19.7
				C324.3,176.4,326.7,167.8,321.1,166.7L321.1,166.7z"/>
			<g>
				<path class="st4" d="M479.5,515.8c-6.7,32.6-3.3,80.9-50.7,83.1c-38,1.7-49.5-55.2-48.4-85.4c27.1-1.9,44.6-31,42.6-56.1
					c2.7,37.5,22.9,52.5,56.5,61V515.8z"/>
				<path class="st1" d="M475.2,514.6c-6,30.2-3.9,75.7-44,79.7c-38.6,3.9-47.1-53-46.3-80.8c-1.5,1.5-3,3-4.5,4.5
					c29.7-2.9,48.7-32,47.1-60.5c-3,0-5.9,0-8.9,0c1.4,16.3,5.9,31.7,17.3,43.8c11,11.8,27.3,17.5,42.5,21.5
					c5.6,1.5,7.9-7.1,2.4-8.6c-13.5-3.5-26.8-8.3-37.2-17.9c-10.8-10-14.8-24.7-16-38.9c-0.5-5.7-9.2-5.8-8.9,0
					c1.3,23.2-13.2,49.1-38.2,51.6c-2.5,0.2-4.4,1.8-4.5,4.5c-1,32.5,9.5,88.5,50.9,89.9c20.3,0.7,37.2-10.8,45.2-29
					c7.9-18,8-38.3,11.8-57.4C484.9,511.4,476.3,509,475.2,514.6L475.2,514.6z"/>
			</g>
			<path class="st1" d="M317,472.3c10.8,19.1,23.4,38.7,45.2,46c15.8,5.2,33.4,0.4,44.8-11.3c13-13.3,17.6-33.5,20.5-51.1
				c4.2-25.4,4.5-51.5,4.5-77.2c-3,0-5.9,0-8.9,0c0,24.4-0.4,48.9,2.7,73.2c2.4,19.2,7.2,38.6,19.8,53.7
				c10.8,13.1,28.5,19.2,45,15.1c19.6-4.8,31.8-24,39-41.4c2.2-5.3-6.4-7.6-8.6-2.4c-6.8,16.4-18.1,32.5-36.5,36
				c-16.6,3.1-31.3-9.5-38.8-22.9c-8.6-15.3-10.8-34.1-12.3-51.2c-1.7-20-1.3-40.1-1.3-60.1c0-5.7-8.9-5.7-8.9,0
				c0,22.1-0.4,44.3-3,66.3c-2,17.1-5.5,35.2-14.9,50c-8.4,13.2-23.5,18.8-38.6,15.3c-20.4-4.8-32.4-25.6-41.9-42.5
				C321.8,462.8,314.1,467.3,317,472.3L317,472.3z"/>
		</g>
		<rect x="322.1" y="173.4" class="st1" width="7.3" height="6.4"/>
	</g>
	<g>
		<path class="st2" d="M890.9,275.8c-2.2-1.1-3.9-3.6-5.2-7.3c-1.3-3.7-2.3-10.3-3.2-19.7c-0.8-9.5-1.7-23.5-2.7-42
			c-1.7-33.1-2.6-58.6-2.6-76.7c0-24,1.7-37,5.1-39.2c1.7-1.1,6.4-2.1,14.1-3.1s16.5-1.9,26.3-2.6c12-0.8,21.6-1.2,28.8-1.2
			c6.8,0,11.2,0.3,13.2,1c4.2,2,6.4,4.1,6.6,6.1c0.1,2,0.2,3.2,0.2,3.6c0,3.3-1.8,6-5.3,8.1c-1.7,0.9-3.9,1.5-6.6,1.8
			c-4,0.5-11.6,1.1-22.8,1.8l-27.5,1.8h-0.8c-2.7,0-4.7,0.4-6,1.1c-1.2,0.7-1.9,2.1-2,4.3c-0.1,2.1-0.2,3.8-0.2,5.1
			c0,3.3,0.1,7.6,0.5,12.9l0.7,16.7c0.1,4.7,0.3,8.1,0.7,10.1s1.5,3.3,3.2,3.6c1.7,0.4,4.1,0.6,7.3,0.6h7.4
			c7.5,0.1,13.3,0.5,17.3,1.1c4.1,0.6,6.8,1.7,8.3,3.2c1.5,1.5,2.2,3.7,2.2,6.5c0,2.7-0.6,4.8-1.9,6.1c-1.2,1.4-3.8,2.3-7.7,2.9
			s-9.6,1-17.3,1.2l-17.9,0.7c0.1,15.3,0.7,31.3,1.6,48c0.9,16.7,1.4,27.2,1.4,31.6c0,4.8-0.5,7.8-1.6,9.2c-0.8,1-1.9,1.8-3.3,2.5
			c-2,1.1-3.9,1.6-5.7,1.6C894,277.1,892.4,276.7,890.9,275.8z"/>
		<path class="st2" d="M993.7,273.8l-2.4-0.8c-2.3-0.6-4.2-1.9-5.6-4c-1.4-2-2.4-5.9-3.1-11.5c-0.7-5.6-1.1-14.1-1.4-25.5
			c-0.3-15.1-0.5-32.7-0.5-52.8c0-11.3,0-20.2,0.1-26.6c0-6.4,0.2-11.1,0.5-14c0.3-3,0.8-5,1.5-6c0.7-1.1,1.7-2,3-2.7l0.6-0.3
			c2-1.4,4-2,5.8-2c1.6,0,3.1,0.5,4.4,1.6c3,2.3,5,6.3,5.9,12.1c0.4,2.9,0.7,4.8,0.9,5.8c0.2,1,0.5,1.5,0.9,1.5
			c0.5,0,1.4-0.6,2.6-1.9c10.8-9.9,22.3-14.9,34.5-14.9c13.4,0,25.5,5.8,36.4,17.5c5.2,6.1,7.8,11.4,7.8,15.9v0.6
			c-0.2,4.7-1.5,7.2-3.8,7.5c-2.3,0.3-3.7,0.5-4.1,0.5c-3.9,0-8.5-2.5-14-7.4c-7.6-7.4-14.9-11.1-21.9-11.1
			c-7.5,0-15.5,4.3-24.1,12.9c-4.2,3.9-7.2,7.6-9,11c-1.8,3.4-2.8,7.6-3.1,12.5c-0.2,4.9-0.3,9.6-0.3,14c0,5.6,0.1,12.3,0.3,20.1
			c0.2,8.6,0.3,15.7,0.3,21.5c0,3.4,0,6.3-0.1,8.7c-0.2,6.4-1,10.6-2.3,12.6c-1.3,2.1-3.4,3.5-6.5,4.3c-1.3,0.6-2.3,0.9-3.2,0.9
			L993.7,273.8L993.7,273.8z"/>
		<path class="st2" d="M1106.9,110c-4.5-2.8-7-5.5-7.3-8.2c-0.3-2.6-0.5-4.4-0.5-5.1c0-3.7,1.1-7.1,3.4-10.2c2.7-3.7,6.7-5.6,12-5.8
			c5.4,0.2,9.1,1.9,11.1,5c2,3.1,3,6.1,3,9.1c0,6.4-3.1,11.3-9.3,15c-1.4,0.7-3.8,1-7.2,1C1109.9,110.8,1108.1,110.6,1106.9,110z
			 M1113,272.3c-2.3-0.5-4.1-1.6-5.2-3.3c-1.1-1.8-1.9-5.3-2.4-10.4c-0.5-5.2-0.8-13.1-1.1-23.9c-0.7-21.9-1-39.9-1-54.1
			c0-24.3,1.2-39.3,3.7-45.2c2-4.6,4.7-6.9,8.2-6.9c4.3,0,7.3,1.7,9.1,5.1c1.4,2.9,2.4,8.6,3,17.3c0.6,8.6,1,21.8,1.2,39.4
			c0.2,10.5,0.3,19.9,0.3,28.1c0,11-0.2,20.1-0.6,27.1c-0.7,12.4-2,20.1-4,23.2c-2,3-4.3,4.5-7,4.5
			C1115.9,273.1,1114.5,272.8,1113,272.3z"/>
		<path class="st2" d="M1199.6,272.8c-11.9-3.2-21.5-10-28.8-20.4s-11.4-19.8-12.3-28.2s-1.3-14-1.3-16.7c0-11.2,2.3-22.4,7-33.6
			c5.9-13.2,14.3-23.6,25.3-31.3c10.9-7.7,19.7-11.8,26.3-12.3c6.6-0.5,10.4-0.7,11.6-0.7c10.5,0,19.9,3.4,28,10.2
			c6.6,6,9.9,12.4,9.9,19.2c0,7.6-3.5,15.2-10.6,22.6c-6.6,6.8-15.5,12.6-26.7,17.4c-11.2,4.8-24,7.8-38.4,9l-6.5,0.6l0.1,5.4
			c0.2,6.2,1.9,12.3,5.1,18.2c3.2,5.9,7.1,10.3,11.8,13.2c2.8,1.7,5.7,2.5,8.8,2.5c11.1,0,24-10.8,38.7-32.5
			c4.3-6.4,7.5-10.2,9.7-11.3c2.2-1.1,3.8-1.6,5-1.6c1.9,0,3.9,0.8,5.9,2.3c3,2,4.4,4.5,4.4,7.6c0,3.1-1.7,7.8-5,14.2
			c-9,17.7-18.6,30-28.9,36.9s-20,10.4-29.1,10.4C1206.4,273.9,1203,273.5,1199.6,272.8z M1195.5,183.9c10.1-2.1,19.1-5,26.8-8.8
			c7.8-3.7,12.8-7,15-9.7c2.2-2.7,3.3-4.8,3.3-6.1c0-1.6-1.1-3-3.2-4.2c-3.3-1.4-6.7-2-10.2-2c-5.2,0-10.6,1.5-16.3,4.4
			c-9.7,4.9-17.3,12.6-22.8,22.9c-0.8,1.6-1.2,2.8-1.2,3.5s0.6,1.1,1.8,1.1C1190.1,185,1192.3,184.7,1195.5,183.9z"/>
		<path class="st2" d="M1385.7,270.1c-1.1-1.1-2-2.7-2.6-4.6c-0.6-1.9-1-5.3-1.2-10s-0.5-11.9-0.6-21.3c-0.2-16.6-0.8-28.9-1.6-36.9
			c-0.9-8-2.4-15.4-4.7-22c-3.2-9.5-6.8-14.7-10.7-15.6c-4-1-6.7-1.4-8.2-1.4c-5.1,0-10.3,2.1-15.7,6.4
			c-6.9,5.4-12.7,14.1-17.5,25.9l-2,5.1l-0.3,36.5c-0.1,17.5-0.5,28.1-0.9,31.7c-0.3,2.4-0.8,4.1-1.4,5.1c-1,1.5-2,2.5-3.2,3.1
			c-1.6,1.4-3,2-4.2,2h-2c-2,0-4-0.6-5.8-1.7l-0.3-0.3c-1.2-0.7-2.1-1.5-2.8-2.4c-0.6-0.9-1.1-2.5-1.5-4.9
			c-0.3-2.3-0.5-6.1-0.6-11.1c-0.3-11.7-0.5-19.2-0.5-22.5c-0.3-21.4-0.8-39.8-1.4-55c-0.5-12.3-0.8-21.7-0.8-28.1
			c0-7.9,0.6-12.9,1.8-15c1.2-2.2,3.2-3.5,5.9-4.1c1.2-0.4,2.3-0.6,3.4-0.6c6.1,0,9.8,6.1,11.3,18.4l0.1,1.6
			c0.2,3.6,0.5,5.5,0.8,5.7c0.3,0.1,0.5,0.2,0.6,0.2c0.7,0,2.3-1.3,5-4c12.1-11.2,23.8-16.8,35.1-16.8c2.6,0,5.3,0.3,7.8,0.9
			c13.6,3.3,23.8,14.5,30.5,33.6c2,6.2,3.3,10.2,3.7,12c2.4,10.4,3.9,21.9,4.3,34.7c0.3,8.9,0.5,16.6,0.5,23.2
			c0,17-0.5,26.9-1.6,29.5c-2.3,3.9-4.6,6.1-6.6,6.4c-2.1,0.3-3.4,0.5-3.9,0.5C1391,273.9,1388.2,272.6,1385.7,270.1z"/>
		<path class="st2" d="M1525.4,276.2c-2.3-1.2-3.9-3.4-4.8-6.6c-0.8-3.2-1.3-9.1-1.4-17.5c-0.1-8.5-0.3-13.3-0.5-14.4
			c-0.2-0.8-0.5-1.2-0.7-1.2c-0.8,0-1.1,0.3-1.1,0.9s-1,2.3-2.8,5.1c-4.2,6.2-8.8,11.9-13.9,17.1c-10.1,9.6-17.6,14.5-22.6,14.7
			c-5,0.2-7.8,0.3-8.3,0.3c-8.9,0-16.8-3.3-23.5-9.9c-7.1-7-11.6-14.8-13.5-23.7s-2.8-16.1-2.8-21.9c0-8,1.1-16.6,3.3-25.9
			c3.8-14.4,9.8-26.5,18-36.2c8.2-9.7,16.1-15.7,23.7-18.2s13.6-3.6,18.2-3.6c6,0,12,1.2,18,3.7l1.1,0.5c0.9,0.5,1.6,0.8,2.2,0.8
			l0.5-0.1c0.5-0.1,0.8-1.2,0.9-3.3c0-2-0.1-5.5-0.3-10.3c-0.1-1.4-0.1-2.8-0.1-4.3c-0.2-4.9-0.3-9.3-0.3-13.2
			c0-4.5,0.1-8.4,0.5-11.6c0.5-5.9,1.7-10,3.5-12.3c1.8-2.3,4.4-3.4,7.9-3.4c4,0,6.9,1.6,8.6,4.7c1.7,3.1,2.8,8.9,3.3,17.2
			c1.7,23.5,2.9,46.7,3.6,69.9s1.1,42.8,1.1,59.1c0,23.5-0.7,36.7-2,39.8c-1.7,2.6-3.6,4.2-5.4,4.7c-1.9,0.5-3.3,0.7-4.2,0.7
			C1529.2,277.9,1527.3,277.3,1525.4,276.2z M1474.7,247.4c6.8-3.1,13.3-10.2,19.4-21.2s12.4-26.9,19-47.6c0.8-2.3,1.1-4.2,1.1-5.8
			c0-1.1-0.1-2-0.5-2.7c-0.8-2-3.2-4-7-6.1c-4.5-2.6-9-3.9-13.4-3.9c-3.6,0-7.1,0.8-10.6,2.5c-7.8,3.8-14.2,10.6-19.3,20.4
			c-5.1,9.8-7.8,21.5-8.1,35.1c0.1,11.7,1.5,19.8,4.4,24.1c2.9,4.4,6,6.5,9.4,6.5C1470.8,248.7,1472.7,248.3,1474.7,247.4z"/>
		<path class="st2" d="M1589.9,271.7c-4-1.7-6.4-5.7-7.2-12c-0.5-4.4-0.8-15.1-1.2-32c-0.3-16.9-0.5-33.2-0.6-48.8
			c-0.1-15.6-0.1-28-0.1-37.1c0-31.8,0.3-49.4,1-52.7c2-5.5,5.3-8.3,9.9-8.4c4.5,0,7.8,2.8,10.1,8.3c0.8,3.3,1.5,13.7,2.2,31.2
			c0.7,17.5,1.2,35.7,1.5,54.5c0.3,18.9,0.5,34.9,0.5,48.1c0,26.6-0.4,41.1-1.2,43.6c-2.3,4.2-5.9,6.2-10.7,6.2
			C1592.7,272.7,1591.3,272.4,1589.9,271.7z"/>
		<path class="st2" d="M1685.5,340.3c-1.7,0-3.1-0.1-4.1-0.2c-8.5-1.9-16.3-5.3-23.4-10.3c-7.1-5-10.7-9.5-10.7-13.6
			c0-5,1.2-7.9,3.7-8.8s4.4-1.4,5.8-1.4c3,0,6.5,1.1,10.3,3.2c7.3,3.9,13.8,5.9,19.6,5.9c21,0,33.2-25.2,36.7-75.5
			c0.3-4.2,0.5-7.5,0.5-9.7c0-2.4-0.2-3.6-0.6-3.6c-0.7,0-2.1,2.3-4.2,6.8c-7.7,15.1-14.7,23.7-21.1,25.8
			c-6.3,2.2-10.9,3.2-13.8,3.2c-6.6,0-12.9-2.6-19.1-7.9c-8.8-7.6-15.7-20.5-20.8-38.5c-4.9-18.5-7.4-34.7-7.4-48.5
			c0-14.3,2.5-23.1,7.4-26.4c2-0.9,3.8-1.4,5.4-1.4c2.3,0,4.4,0.8,6.2,2.5c2.8,2.4,4.2,5.7,4.2,9.9c0,0.9-0.1,1.8-0.2,2.7
			c-0.1,0.9-0.2,2.1-0.2,3.5c0,6.1,0.7,14,2,23.7c2.5,18.6,6.8,33.6,12.8,44.9c3.7,7,6.8,10.4,9.4,10.4c2.5,0,5.3-2,8.5-5.9
			c3.1-3.9,6-9.1,8.7-15.5c0.8-2,1.5-3.6,2.2-5l1.6-4.6c0.8-2.3,1.4-3.5,1.6-3.7c0.4-0.6,0.6-1.5,0.6-2.6s0.2-1.8,0.7-1.9
			c0.5-0.5,0.9-1.4,1-2.5c0.6-2.6,1.3-5.2,2.2-7.9c2.4-8.3,5.1-19.4,7.9-33.3c2-10,4-16.3,6.1-18.8c2.1-2.6,4.3-3.9,6.6-3.9
			c1.5,0,3.1,0.4,4.9,1.2c8.8,4.3,13.3,29,13.3,74.1l-0.1,14.3c-0.5,34.2-4.7,60.7-12.5,79.6c-7.8,18.8-20,31.6-36.5,38.4
			c-0.9,0.3-2.7,0.6-5.3,0.8c-2.6,0.2-4.8,0.4-6.6,0.5L1685.5,340.3L1685.5,340.3z"/>
		<path class="st2" d="M890.9,554.8c-2.2-1.1-3.9-3.6-5.2-7.3c-1.3-3.7-2.3-10.3-3.2-19.7c-0.8-9.5-1.7-23.5-2.7-42
			c-1.7-33.1-2.6-58.6-2.6-76.7c0-24,1.7-37,5.1-39.2c1.7-1.1,6.4-2.1,14.1-3.1c7.7-1,16.5-1.9,26.3-2.6c12-0.8,21.6-1.2,28.8-1.2
			c6.8,0,11.2,0.3,13.2,1c4.2,2,6.4,4.1,6.6,6.1c0.1,2,0.2,3.2,0.2,3.6c0,3.3-1.8,6-5.3,8.1c-1.7,0.9-3.9,1.5-6.6,1.8
			c-4,0.5-11.6,1.1-22.8,1.8l-27.5,1.8h-0.8c-2.7,0-4.7,0.4-6,1.1c-1.2,0.7-1.9,2.1-2,4.3c-0.1,2.1-0.2,3.8-0.2,5.1
			c0,3.3,0.1,7.6,0.5,12.9l0.7,16.7c0.1,4.7,0.3,8.1,0.7,10.1c0.4,2,1.5,3.3,3.2,3.6c1.7,0.4,4.1,0.6,7.3,0.6h7.4
			c7.5,0.1,13.3,0.5,17.3,1.1c4.1,0.6,6.8,1.7,8.3,3.2c1.5,1.5,2.2,3.7,2.2,6.5c0,2.7-0.6,4.8-1.9,6.1c-1.2,1.4-3.8,2.3-7.7,2.9
			c-3.9,0.6-9.6,1-17.3,1.2l-17.9,0.7c0.1,15.3,0.7,31.3,1.6,48c0.9,16.7,1.4,27.2,1.4,31.6c0,4.8-0.5,7.8-1.6,9.2
			c-0.8,1-1.9,1.8-3.3,2.5c-2,1.1-3.9,1.6-5.7,1.6C894,556,892.4,555.6,890.9,554.8z"/>
		<path class="st2" d="M1020.2,550.9c-12.9-3.3-22.6-12.4-29.3-27.6c-6.7-15.1-10.7-37.2-12.1-66.2c-0.5-7.8-0.7-14.6-0.7-20.3
			c0-8.2,0.5-14.4,1.4-18.5c1.6-7,5-10.5,10.3-10.7c0.8-0.1,1.6-0.2,2.4-0.2c2.3,0,4.2,0.6,5.4,1.9c1.7,1.6,3,5.4,3.9,11.5
			c0.9,6.1,1.7,15.6,2.6,28.5c1.1,16.3,2.2,28.8,3.4,37.3c1.2,8.6,2.8,15.4,4.9,20.5c4.9,12.7,9.1,19.5,12.5,20.4
			c3.4,0.9,5.6,1.3,6.5,1.3c4.9,0,9.7-3.3,14.2-9.8c5.4-7.6,9.6-18.4,12.7-32.2c3.1-13.8,4.6-29.1,4.6-46l-0.2-11.9
			c0-3.7,0.1-6.7,0.5-9.1c0.5-3.5,1.4-5.8,3-7c1.5-1.2,3.8-1.8,6.8-1.8c5.2,0,8.9,2.9,11,8.8c2.1,5.9,3.1,15.2,3.1,28
			c0,24.3-3,44.7-8.8,61.3c-5.7,16.2-12.8,27.5-21.3,33.8s-16.8,9.5-25.1,9.5C1028,552.5,1024.2,552,1020.2,550.9z"/>
		<path class="st2" d="M1128.4,552.7l-2.4-0.8c-2.3-0.6-4.2-1.9-5.6-4s-2.4-5.9-3.1-11.5c-0.7-5.6-1.1-14.1-1.4-25.5
			c-0.3-15.1-0.5-32.7-0.5-52.8c0-11.3,0-20.2,0.1-26.6c0-6.4,0.2-11.1,0.5-14c0.3-3,0.8-5,1.5-6c0.7-1.1,1.7-2,3-2.7l0.6-0.3
			c2-1.4,4-2,5.8-2c1.6,0,3.1,0.5,4.4,1.6c3,2.3,5,6.3,5.9,12.1c0.4,2.9,0.7,4.8,0.9,5.8c0.2,1,0.5,1.5,0.9,1.5
			c0.5,0,1.4-0.6,2.6-1.9c10.8-9.9,22.3-14.9,34.5-14.9c13.4,0,25.5,5.8,36.4,17.5c5.2,6.1,7.8,11.4,7.8,15.9v0.6
			c-0.2,4.7-1.5,7.2-3.8,7.5c-2.3,0.3-3.7,0.5-4.1,0.5c-3.9,0-8.5-2.5-14-7.4c-7.6-7.4-14.9-11.1-21.9-11.1
			c-7.5,0-15.5,4.3-24.1,12.9c-4.2,3.9-7.2,7.6-9,11c-1.8,3.4-2.8,7.6-3.1,12.5c-0.2,4.9-0.3,9.6-0.3,14c0,5.6,0.1,12.3,0.3,20.1
			c0.2,8.6,0.3,15.7,0.3,21.5c0,3.4,0,6.3-0.1,8.7c-0.2,6.4-1,10.6-2.3,12.6c-1.3,2.1-3.4,3.5-6.5,4.3c-1.3,0.6-2.3,0.9-3.2,0.9
			L1128.4,552.7L1128.4,552.7z"/>
	</g>
</g>
</svg>
