<?xml version="1.0" encoding="utf-8"?>
<!-- Generator: Adobe Illustrator 27.2.0, SVG Export Plug-In . SVG Version: 6.00 Build 0)  -->
<svg version="1.1" id="Layer_1" xmlns="http://www.w3.org/2000/svg" xmlns:xlink="http://www.w3.org/1999/xlink" x="0px" y="0px"
	 viewBox="0 0 1000 1000" style="enable-background:new 0 0 1000 1000;" xml:space="preserve">
<style type="text/css">
	.st0{fill:#FFFFFF;}
</style>
<g>
	<g>
		<path class="st0" d="M344.06,729.91c-3.56,0-6.68-2.4-7.61-5.84c-0.21-0.77-111.52-416.19-126.12-470.69l-202.45,0
			c-4.35,0-7.87-3.53-7.87-7.87s3.53-7.87,7.87-7.87l208.5,0c3.56,0,6.68,2.39,7.61,5.84l122.2,456.05
			c1.82,6.79,3.06,11.43,3.91,14.64l533.68,0l100.75-375.98c1.13-4.2,5.45-6.69,9.64-5.57c4.2,1.13,6.69,5.44,5.57,9.64
			L897.42,724.07c-0.93,3.48-4.08,5.84-7.6,5.84c-0.03,0-0.07,0-0.1,0C881.94,729.91,349.47,729.91,344.06,729.91z"/>
		<path class="st0" d="M485.98,882.36c-32.62,0-59.16-26.54-59.16-59.16s26.54-59.16,59.16-59.16c32.62,0,59.16,26.54,59.16,59.16
			S518.6,882.36,485.98,882.36z M485.98,779.79c-23.94,0-43.41,19.47-43.41,43.41s19.47,43.41,43.41,43.41
			c23.94,0,43.41-19.47,43.41-43.41S509.92,779.79,485.98,779.79z"/>
		<path class="st0" d="M747.89,882.36c-32.62,0-59.16-26.54-59.16-59.16s26.54-59.16,59.16-59.16c32.62,0,59.16,26.54,59.16,59.16
			S780.51,882.36,747.89,882.36z M747.89,779.79c-23.94,0-43.41,19.47-43.41,43.41s19.47,43.41,43.41,43.41
			c23.94,0,43.41-19.47,43.41-43.41S771.83,779.79,747.89,779.79z"/>
	</g>
	<rect x="344.06" y="714.16" class="st0" width="545.76" height="15.75"/>
</g>
<g>
	<g>
		<path class="st0" d="M787.94,394.57c0,41.68-3.16,78.92-9.48,111.7c-6.32,32.79-16.28,60.54-29.86,83.25
			c-13.58,22.72-31.15,39.99-52.69,51.81c-21.55,11.82-47.42,17.74-77.63,17.74c-38.17,0-69.72-10.42-94.66-31.26
			c-24.94-20.84-43.56-50.99-55.85-90.45c-12.29-39.46-18.44-87.05-18.44-142.79c0-54.8,5.56-101.92,16.68-141.38
			c11.12-39.46,29.09-69.78,53.92-90.98c24.82-21.19,57.61-31.79,98.35-31.79c38.64,0,70.48,10.48,95.54,31.44
			c25.05,20.96,43.67,51.17,55.85,90.62C781.85,291.95,787.94,339.3,787.94,394.57z M507.99,394.57c0,47.77,3.63,87.58,10.89,119.43
			c7.26,31.85,19.02,55.67,35.3,71.48c16.27,15.81,37.64,23.71,64.1,23.71c26.46,0,47.83-7.84,64.1-23.53
			c16.27-15.69,28.1-39.46,35.48-71.3c7.38-31.84,11.07-71.77,11.07-119.78c0-47.07-3.63-86.46-10.89-118.2
			c-7.26-31.73-18.97-55.61-35.12-71.66c-16.16-16.04-37.71-24.06-64.63-24.06c-26.93,0-48.47,8.02-64.63,24.06
			c-16.16,16.04-27.81,39.93-34.95,71.66C511.55,308.1,507.99,347.5,507.99,394.57z"/>
	</g>
</g>
</svg>
